<?xml version="1.0" encoding="utf-8"?>
<!-- Generator: Adobe Illustrator 16.0.4, SVG Export Plug-In . SVG Version: 6.00 Build 0)  -->
<!DOCTYPE svg PUBLIC "-//W3C//DTD SVG 1.1//EN" "http://www.w3.org/Graphics/SVG/1.1/DTD/svg11.dtd">
<svg version="1.1" id="Layer_1" xmlns="http://www.w3.org/2000/svg" xmlns:xlink="http://www.w3.org/1999/xlink" x="0px" y="0px"
	 width="180px" height="180px" viewBox="0 0 180 180" enable-background="new 0 0 180 180" xml:space="preserve">
<g>
	<path stroke="#000000" stroke-width="12" stroke-linecap="round" stroke-linejoin="round" stroke-miterlimit="10" d="
		M19.031,61.366c0,13.698,4.712,24.272,11.234,38.425C37.482,115.477,58.267,160,58.267,160s17.906-42.653,26.095-60.209
		c5.302-11.348,13.136-24.727,13.136-38.425C97.498,38.527,79.941,20,58.267,20C36.588,20,19.031,38.527,19.031,61.366z
		 M38.267,53.22c0-11.047,8.956-20.003,20-20.003c11.041,0,20,8.957,20,20.003c0,11.042-8.959,19.997-20,19.997
		C47.223,73.216,38.267,64.264,38.267,53.22z"/>
	<path fill="none" stroke="#000000" stroke-width="12" stroke-linecap="round" stroke-miterlimit="10" d="M132.008,143.818
		L106.8,116.861l27.042-25.266"/>
	<path fill="none" stroke="#000000" stroke-width="12" stroke-linecap="round" stroke-miterlimit="10" d="M160.969,116.861h-49.555"
		/>
</g>
</svg>
