<?xml version="1.0" encoding="utf-8"?>
<!-- Generator: Adobe Illustrator 16.0.4, SVG Export Plug-In . SVG Version: 6.00 Build 0)  -->
<!DOCTYPE svg PUBLIC "-//W3C//DTD SVG 1.1//EN" "http://www.w3.org/Graphics/SVG/1.1/DTD/svg11.dtd">
<svg version="1.1" id="Layer_1" xmlns="http://www.w3.org/2000/svg" xmlns:xlink="http://www.w3.org/1999/xlink" x="0px" y="0px"
	 width="180px" height="180px" viewBox="0 0 180 180" enable-background="new 0 0 180 180" xml:space="preserve">
<g>
	
		<path fill-rule="evenodd" clip-rule="evenodd" stroke="#000000" stroke-width="11" stroke-linecap="round" stroke-linejoin="round" stroke-miterlimit="10" d="
		M106.766,137.329c-4.885,7.531-23.93,9.044-27.955-0.213c-2.549,2.542-5.617,2.909-7.141,2.849
		c-4.416-0.183-6.361-1.982-8.842-5.271l-10.707-32.81l54.418-27.347l55.16,27.347l-10.707,32.81
		c-2.479,3.289-4.426,5.089-8.842,5.271c-1.523,0.061-4.59-0.307-7.141-2.849c-4.023,9.257-23.07,7.744-27.953,0.213H106.766z"/>
	
		<polyline fill-rule="evenodd" clip-rule="evenodd" fill="none" stroke="#000000" stroke-width="11" stroke-linecap="round" stroke-linejoin="round" stroke-miterlimit="10" points="
		150.916,105.383 143.506,68.858 132.016,64.254 129.551,41.378 117.299,38.716 117.299,19.772 96.311,19.772 96.311,38.716 
		84.059,41.378 81.592,64.254 70.104,68.858 62.693,105.383 	"/>
	<path opacity="0.4" fill-rule="evenodd" clip-rule="evenodd" d="M107.629,157.761c-2.809,5.414-7.568,8.032-13.645,8.119
		c-6.367,0.101-11.348-2.518-14.336-8.19c-1.461,3.504-4.277,5.651-7.785,7.067c-4.225,1.672-8.533,1.643-12.732,0.029
		c-4.91-1.878-6.924-5.676-7.275-10.398c-0.049-0.653,0-1.332,0-2.174c2.799,3.773,6.973,4.596,11.24,5.067
		c3.285,0.369,6.594,0.131,9.77-0.784c2.773-0.815,5.348-1.904,6.836-4.597c1.475,2.649,3.984,3.812,6.717,4.545
		c5.053,1.371,10.141,1.323,15.166-0.192c2.883-0.876,4.385-1.97,6.049-4.273c2.012,3.289,5.441,4.355,9.041,4.992
		c4.596,0.815,9.168,0.594,13.592-0.984c2.174-0.775,4.08-1.883,5.238-4.038c2.676,4.021,7.033,4.895,11.49,5.332
		c4.48,0.422,8.934,0.012,12.965-2.104c1.27-0.671,2.307-1.721,3.318-2.504c0.74,5.454-2.273,10.433-7.307,12.179
		c-5.504,1.896-10.748,1.411-15.635-1.677c-2.217-1.425-3.105-2.47-4.746-5.398c-2.848,5.445-7.729,8.09-13.951,8.112
		C115.402,165.902,110.492,163.292,107.629,157.761z"/>
	<path fill="none" stroke="#000000" stroke-width="12" stroke-linecap="round" stroke-miterlimit="10" d="M34.994,24.1
		l26.301,24.574L36.777,74.891"/>
	<path fill="none" stroke="#000000" stroke-width="12" stroke-linecap="round" stroke-miterlimit="10" d="M56.807,48.674H16.611"/>
	<rect x="97.309" y="20.04" fill-rule="evenodd" clip-rule="evenodd" width="17.059" height="23.258"/>
</g>
</svg>
