<?xml version="1.0" encoding="utf-8"?>
<!-- Generator: Adobe Illustrator 16.0.4, SVG Export Plug-In . SVG Version: 6.00 Build 0)  -->
<!DOCTYPE svg PUBLIC "-//W3C//DTD SVG 1.1//EN" "http://www.w3.org/Graphics/SVG/1.1/DTD/svg11.dtd">
<svg version="1.1" id="Layer_1" xmlns="http://www.w3.org/2000/svg" xmlns:xlink="http://www.w3.org/1999/xlink" x="0px" y="0px"
	 width="180px" height="180px" viewBox="0 0 180 180" enable-background="new 0 0 180 180" xml:space="preserve">
<g>
	<path opacity="0.4" fill="none" stroke="#000000" stroke-width="14" stroke-linecap="square" stroke-miterlimit="10" d="
		M122.874,95.036c0-16.713-13.553-30.27-30.271-30.27c-16.71,0-30.268,13.557-30.268,30.27c0,16.714,13.558,30.268,30.268,30.268
		C109.321,125.304,122.874,111.75,122.874,95.036z"/>
	
		<line opacity="0.4" fill="none" stroke="#000000" stroke-width="8" stroke-linecap="round" stroke-miterlimit="10" x1="93" y1="29.003" x2="93" y2="57.003"/>
	
		<line fill="none" stroke="#000000" stroke-width="16" stroke-linecap="round" stroke-miterlimit="10" x1="93" y1="40.003" x2="93" y2="61.003"/>
	
		<line opacity="0.4" fill="none" stroke="#000000" stroke-width="8" stroke-linecap="round" stroke-miterlimit="10" x1="93" y1="132.003" x2="93" y2="159.003"/>
	
		<line fill="none" stroke="#000000" stroke-width="16" stroke-linecap="round" stroke-miterlimit="10" x1="93" y1="125.003" x2="93" y2="159.003"/>
	<path fill="none" stroke="#000000" stroke-width="16" stroke-linecap="round" stroke-miterlimit="10" d="M69.44,47.211
		l23.092-24.712l24.636,23.039"/>
	<path fill="none" stroke="#000000" stroke-width="16" stroke-linecap="round" stroke-miterlimit="10" d="M93.604,125.304
		c16.718,0,29.271-13.554,29.271-30.268c0-16.713-13.553-30.27-30.271-30.27"/>
	
		<line opacity="0.4" fill="none" stroke="#000000" stroke-width="14" stroke-linecap="round" stroke-miterlimit="10" x1="58" y1="85.003" x2="35" y2="85.003"/>
	
		<line opacity="0.4" fill="none" stroke="#000000" stroke-width="14" stroke-linecap="round" stroke-miterlimit="10" x1="62.111" y1="111.862" x2="43.287" y2="122.729"/>
	
		<line opacity="0.4" fill="none" stroke="#000000" stroke-width="14" stroke-linecap="round" stroke-miterlimit="10" x1="139.369" y1="67.53" x2="118.941" y2="76.886"/>
</g>
</svg>
