<?xml version="1.0" encoding="utf-8"?>
<!-- Generator: Adobe Illustrator 16.0.4, SVG Export Plug-In . SVG Version: 6.00 Build 0)  -->
<!DOCTYPE svg PUBLIC "-//W3C//DTD SVG 1.1//EN" "http://www.w3.org/Graphics/SVG/1.1/DTD/svg11.dtd">
<svg version="1.1" id="Layer_1" xmlns="http://www.w3.org/2000/svg" xmlns:xlink="http://www.w3.org/1999/xlink" x="0px" y="0px"
	 width="180px" height="180px" viewBox="0 0 180 180" enable-background="new 0 0 180 180" xml:space="preserve">
<g>
	<path stroke="#000000" stroke-width="12" stroke-linecap="round" stroke-linejoin="round" stroke-miterlimit="10" d="M121.735,20
		c-21.676,0-39.232,18.527-39.232,41.366c0,13.698,7.834,27.077,13.137,38.425C103.827,117.347,121.735,160,121.735,160
		s20.783-44.523,28-60.209c6.523-14.152,11.234-24.727,11.234-38.425C160.969,38.527,143.413,20,121.735,20z M121.735,73.217
		c-11.041,0-20-8.955-20-19.997c0-11.047,8.959-20.004,20-20.004c11.043,0,20,8.957,20,20.004
		C141.735,64.264,132.778,73.217,121.735,73.217z"/>
	<path fill="none" stroke="#000000" stroke-width="12" stroke-linecap="round" stroke-miterlimit="10" d="M46.159,91.596
		L73.2,116.861l-25.207,26.956"/>
	<path fill="none" stroke="#000000" stroke-width="12" stroke-linecap="round" stroke-miterlimit="10" d="M68.586,116.861H19.032"/>
</g>
</svg>
