<?xml version="1.0" encoding="utf-8"?>
<!-- Generator: Adobe Illustrator 16.0.4, SVG Export Plug-In . SVG Version: 6.00 Build 0)  -->
<!DOCTYPE svg PUBLIC "-//W3C//DTD SVG 1.1//EN" "http://www.w3.org/Graphics/SVG/1.1/DTD/svg11.dtd">
<svg version="1.1" id="Layer_1" xmlns="http://www.w3.org/2000/svg" xmlns:xlink="http://www.w3.org/1999/xlink" x="0px" y="0px"
	 width="180px" height="180px" viewBox="0 0 180 180" enable-background="new 0 0 180 180" xml:space="preserve">
<g>
	<path opacity="0.4" fill="none" stroke="#000000" stroke-width="14" stroke-linecap="square" stroke-miterlimit="10" d="
		M123.467,89.188c0-16.433-13.328-29.764-29.766-29.764c-16.436,0-29.764,13.331-29.764,29.764
		c0,16.435,13.329,29.764,29.764,29.764C110.139,118.952,123.467,105.625,123.467,89.188z"/>
	<path fill="none" stroke="#000000" stroke-width="16" stroke-linecap="round" stroke-miterlimit="10" d="M94.701,118.952
		c16.438,0,28.766-13.327,28.766-29.764"/>
	
		<line opacity="0.4" fill="none" stroke="#000000" stroke-width="14" stroke-linecap="round" stroke-miterlimit="10" x1="94" y1="27.003" x2="94" y2="51.003"/>
	
		<line opacity="0.4" fill="none" stroke="#000000" stroke-width="8" stroke-linecap="round" stroke-miterlimit="10" x1="94" y1="126.003" x2="94" y2="154.003"/>
	
		<line opacity="0.4" fill="none" stroke="#000000" stroke-width="14" stroke-linecap="round" stroke-miterlimit="10" x1="57" y1="89.003" x2="34" y2="89.003"/>
	
		<line opacity="0.4" fill="none" stroke="#000000" stroke-width="14" stroke-linecap="round" stroke-miterlimit="10" x1="66.111" y1="111.862" x2="47.287" y2="122.729"/>
	
		<line opacity="0.4" fill="none" stroke="#000000" stroke-width="14" stroke-linecap="round" stroke-miterlimit="10" x1="146.369" y1="66.53" x2="125.941" y2="75.886"/>
	
		<line fill="none" stroke="#000000" stroke-width="16" stroke-linecap="round" stroke-miterlimit="10" x1="94" y1="120.003" x2="94" y2="154.003"/>
	<path fill="none" stroke="#000000" stroke-width="16" stroke-linecap="round" stroke-miterlimit="10" d="M97.799,93.431
		l28.143-17.545l17.584,28.229"/>
</g>
</svg>
