<?xml version="1.0" encoding="utf-8"?>
<!-- Generator: Adobe Illustrator 16.0.4, SVG Export Plug-In . SVG Version: 6.00 Build 0)  -->
<!DOCTYPE svg PUBLIC "-//W3C//DTD SVG 1.1//EN" "http://www.w3.org/Graphics/SVG/1.1/DTD/svg11.dtd">
<svg version="1.1" id="Layer_1" xmlns="http://www.w3.org/2000/svg" xmlns:xlink="http://www.w3.org/1999/xlink" x="0px" y="0px"
	 width="180px" height="180px" viewBox="0 0 180 180" enable-background="new 0 0 180 180" xml:space="preserve">
<g>
	<g>
		<path d="M85.75,151.988c-1.558-0.403-2.917-0.418-4.168-0.9c-5.054-1.967-7.596-6.277-7.593-12.586
			c0.005-30.082,0.009-60.167,0-90.25c-0.003-7.604,5.138-12.808,12.726-12.808c4.7,0,9.399-0.108,14.093,0.05
			c2.639,0.088,4.594-0.763,6.407-2.663c2.808-2.953,5.381-6.325,9.766-7.176c3.609,0,7.218,0,10.824,0
			c2.521,0.65,4.771,1.725,6.557,3.72c1.356,1.519,2.896,2.878,4.312,4.346c1.154,1.199,2.501,1.753,4.183,1.739
			c5.225-0.045,10.445-0.087,15.666,0.035c1.671,0.041,3.42,0.357,4.978,0.956c4.708,1.813,7.486,6.298,7.488,11.689
			c0.005,14.811,0.008,29.619,0.008,44.43c0.001,15.521,0.013,31.046-0.013,46.568c-0.008,6.325-3.038,10.416-9.058,12.428
			c-0.194,0.063-0.351,0.238-0.609,0.422H85.75z M78.696,113.25c0.563,0,1.025,0,1.49,0c28.153,0,56.305-0.013,84.459,0.031
			c1.413,0,1.712-0.428,1.707-1.768c-0.048-15.001-0.027-30.004-0.027-45.005c0-2.088-0.004-2.101-2.071-2.101
			c-27.818-0.005-55.643-0.005-83.459,0c-2.178,0-2.197,0.015-2.198,2.279c-0.004,15.002,0.001,30.002,0.011,45.005
			C78.607,112.157,78.659,112.62,78.696,113.25z M78.79,117.917c-0.08,0.467-0.187,0.785-0.187,1.106
			c0.004,6.978-0.081,13.956,0.06,20.932c0.093,4.508,3.301,7.396,7.859,7.397c23.923,0.004,47.849,0.004,71.775,0.001
			c4.854,0,8.021-3.172,8.023-8.013c0.005-6.599-0.035-13.197,0.031-19.796c0.013-1.331-0.393-1.66-1.683-1.658
			c-28.104,0.035-56.204,0.03-84.307,0.03C79.85,117.917,79.339,117.917,78.79,117.917z M122.539,59.843c0-0.004,0-0.008,0-0.011
			c14.005,0,28.011-0.024,42.016,0.036c1.497,0.009,1.836-0.447,1.792-1.854c-0.096-3.369-0.006-6.744-0.03-10.113
			c-0.03-4.625-3.189-7.761-7.81-7.77c-5.269-0.012-10.538-0.021-15.809,0.002c-2.866,0.012-5.258-1.032-7.262-3.054
			c-1.636-1.649-3.296-3.281-4.924-4.943c-1.16-1.181-2.518-1.761-4.202-1.721c-2.56,0.06-5.125,0.057-7.689,0.001
			c-1.678-0.04-3.044,0.521-4.205,1.704c-1.696,1.727-3.414,3.437-5.14,5.136c-1.95,1.918-4.286,2.889-7.043,2.876
			c-5.128-0.022-10.257,0-15.383,0c-5.232,0.001-8.194,2.929-8.241,8.183c-0.026,3.134-0.021,6.266-0.021,9.401
			c0,2.119,0.004,2.127,2.077,2.127C94.622,59.843,108.582,59.843,122.539,59.843z"/>
		<path fill-rule="evenodd" clip-rule="evenodd" d="M86.3,98.866c-2.271,0.049-3.408-1.775-2.54-3.354
			c0.198-0.365,0.504-0.682,0.804-0.981c3.91-3.927,7.825-7.846,11.75-11.76c1.28-1.276,2.726-1.4,3.728-0.347
			c1,1.052,0.873,2.316-0.404,3.604c-3.947,3.959-7.89,7.919-11.865,11.844C87.268,98.375,86.573,98.684,86.3,98.866z"/>
		<path fill-rule="evenodd" clip-rule="evenodd" d="M148.844,108.929c-0.682-0.566-1.493-0.996-1.933-1.667
			c-0.609-0.936-0.252-1.915,0.526-2.697c2.077-2.085,4.159-4.167,6.243-6.249c1.206-1.209,2.399-2.434,3.631-3.618
			c1.151-1.106,2.402-1.16,3.406-0.204c0.991,0.937,0.961,2.395-0.157,3.526c-3.239,3.276-6.49,6.538-9.775,9.766
			C150.342,108.221,149.69,108.443,148.844,108.929z"/>
		<path fill-rule="evenodd" clip-rule="evenodd" d="M85.644,84.621c-0.689-0.586-1.48-1.025-1.928-1.692
			c-0.645-0.966-0.189-1.923,0.567-2.687c2.2-2.226,4.417-4.435,6.633-6.65c1.072-1.072,2.127-2.164,3.227-3.211
			c1.105-1.056,2.487-1.106,3.416-0.179c0.925,0.922,0.917,2.377-0.123,3.433c-3.266,3.309-6.552,6.598-9.867,9.856
			C87.125,83.926,86.474,84.146,85.644,84.621z"/>
		<path fill-rule="evenodd" clip-rule="evenodd" d="M112.872,71.769c0.053,1.521-3.863,5.364-5.372,5.27
			c-1.621-0.1-2.814-1.98-1.865-3.292c1.068-1.463,2.402-2.803,3.853-3.889C110.808,68.868,112.813,70.119,112.872,71.769z"/>
		<path fill-rule="evenodd" clip-rule="evenodd" d="M102.74,81.927c-1.263-0.021-2.285-1.152-2.23-2.46
			c0.057-1.312,1.405-2.63,2.71-2.643c1.287-0.011,2.345,1.074,2.314,2.37C105.494,80.536,104.056,81.946,102.74,81.927z"/>
		<path fill-rule="evenodd" clip-rule="evenodd" d="M93.449,123.056c5.309,0.087,9.593,4.458,9.493,9.69
			c-0.101,5.354-4.507,9.572-9.878,9.458c-5.391-0.117-9.447-4.415-9.36-9.914C83.788,127.123,88.168,122.972,93.449,123.056z
			 M88.374,132.649c0.01,2.741,2.229,4.973,4.948,4.978c2.672,0.003,4.947-2.314,4.922-5.021c-0.026-2.732-2.276-4.989-4.967-4.978
			C90.584,127.642,88.364,129.91,88.374,132.649z"/>
		<path fill-rule="evenodd" clip-rule="evenodd" d="M151.581,142.193c-5.285,0.01-9.505-4.165-9.526-9.422
			c-0.021-5.536,4.166-9.75,9.671-9.721c5.256,0.023,9.461,4.249,9.467,9.509C161.197,138.019,157.041,142.185,151.581,142.193z
			 M151.571,137.629c2.646,0.036,5.005-2.281,5.042-4.954c0.035-2.653-2.267-5.004-4.949-5.045c-2.648-0.04-5.002,2.267-5.041,4.946
			C146.584,135.212,148.914,137.593,151.571,137.629z"/>
		<path fill-rule="evenodd" clip-rule="evenodd" d="M132.031,45.211c-0.005,5.217-4.276,9.469-9.506,9.463
			c-5.406-0.001-9.752-4.303-9.707-9.605c0.048-5.255,4.404-9.598,9.635-9.606C127.769,35.451,132.036,39.799,132.031,45.211z
			 M127.366,45.211c0.056-2.78-2.107-5.053-4.837-5.078c-2.724-0.025-5.001,2.206-5.035,4.934c-0.036,2.672,2.135,4.91,4.814,4.966
			C125.126,50.096,127.31,48.016,127.366,45.211z"/>
	</g>
	<g id="B1sf01_1_">
		<g>
			<path fill-rule="evenodd" clip-rule="evenodd" d="M50.466,130.073c2.03-0.42,3.51,0.433,3.929,2.19
				c0.324,1.346-0.363,2.766-1.666,3.327c-0.903,0.391-1.827,0.747-2.765,1.047c-1.442,0.462-2.811-0.149-3.574-1.575
				c-2.8-5.219-5.589-10.443-8.381-15.664c-1.622-3.035-3.203-6.096-4.894-9.094c-0.656-1.167-0.718-2.366-0.711-3.619
				c0.012-2.604,0.022-5.205,0.029-7.808c0-0.108-0.038-0.222-0.087-0.475c-1.105,1.353-2.139,2.607-3.166,3.866
				c-2.068,2.531-4.129,5.065-6.199,7.594c-0.919,1.126-2.104,1.52-3.33,1.129c-1.285-0.411-2.019-1.396-2.087-2.89
				c-0.047-1.016,0.59-1.76,1.174-2.481c2.078-2.558,4.189-5.089,6.276-7.639c2.656-3.244,5.302-6.497,7.951-9.743
				c0.92-1.126,2.143-1.518,3.406-1.093c1.227,0.411,1.979,1.497,1.982,2.967c0.011,5.062,0.032,10.123-0.017,15.184
				c-0.013,1.427,0.251,2.683,0.947,3.964c3.632,6.654,7.176,13.358,10.75,20.045C50.172,129.56,50.315,129.809,50.466,130.073z"/>
			<path fill-rule="evenodd" clip-rule="evenodd" d="M31.332,111.269c1.009,1.883,1.977,3.656,2.891,5.454
				c0.089,0.178-0.083,0.574-0.247,0.781c-3.503,4.476-7.02,8.941-10.534,13.412c-0.148,0.188-0.29,0.379-0.397,0.522
				c0.281,0.603,0.627,1.135,0.786,1.719c0.351,1.282-0.27,2.605-1.425,3.249c-1.125,0.631-2.656,0.452-3.524-0.51
				c-0.79-0.873-1.529-1.799-2.206-2.765c-0.76-1.082-0.633-2.417,0.259-3.551c3.062-3.904,6.135-7.803,9.202-11.703
				C27.847,115.704,29.557,113.526,31.332,111.269z"/>
			<path fill-rule="evenodd" clip-rule="evenodd" d="M40.536,90.974c0.71,0.536,1.396,1.049,2.079,1.568
				c3.372,2.571,6.745,5.14,10.107,7.719c1.654,1.268,1.818,3.35,0.388,4.68c-1.024,0.948-2.529,1.111-3.655,0.269
				c-2.934-2.19-5.831-4.43-8.732-6.66c-0.148-0.114-0.294-0.341-0.296-0.517c-0.02-2.266-0.014-4.53-0.005-6.796
				C40.422,91.175,40.475,91.111,40.536,90.974z"/>
		</g>
		<path fill-rule="evenodd" clip-rule="evenodd" d="M36.297,72.759c-3.569-0.018-6.286,2.714-6.272,6.307
			c0.014,3.409,2.751,6.118,6.179,6.111c3.541-0.007,6.236-2.709,6.233-6.25C42.435,75.517,39.705,72.774,36.297,72.759z
			 M36.198,82.217c-1.725-0.024-3.238-1.569-3.21-3.279c0.024-1.736,1.552-3.232,3.269-3.207c1.739,0.027,3.232,1.549,3.209,3.272
			C39.441,80.737,37.913,82.24,36.198,82.217z"/>
	</g>
	<polygon points="63.929,140.35 9.115,140.378 9,135.712 63.912,135.742 	"/>
</g>
</svg>
