<?xml version="1.0" encoding="utf-8"?>
<!-- Generator: Adobe Illustrator 16.0.4, SVG Export Plug-In . SVG Version: 6.00 Build 0)  -->
<!DOCTYPE svg PUBLIC "-//W3C//DTD SVG 1.1//EN" "http://www.w3.org/Graphics/SVG/1.1/DTD/svg11.dtd">
<svg version="1.1" id="Layer_1" xmlns="http://www.w3.org/2000/svg" xmlns:xlink="http://www.w3.org/1999/xlink" x="0px" y="0px"
	 width="180px" height="180px" viewBox="0 0 180 180" enable-background="new 0 0 180 180" xml:space="preserve">
<g id="B1sf01_7_">
	<g>
		<path fill-rule="evenodd" clip-rule="evenodd" d="M115.024,140.889c3.354-0.695,5.798,0.714,6.494,3.621
			c0.533,2.223-0.603,4.568-2.756,5.498c-1.496,0.645-3.02,1.234-4.57,1.73c-2.382,0.762-4.643-0.248-5.907-2.605
			c-4.629-8.624-9.235-17.258-13.851-25.888c-2.682-5.017-5.295-10.073-8.087-15.029c-1.087-1.93-1.186-3.91-1.177-5.983
			c0.022-4.3,0.04-8.601,0.052-12.902c0-0.182-0.063-0.366-0.143-0.784c-1.829,2.233-3.537,4.308-5.235,6.389
			c-3.417,4.183-6.826,8.372-10.245,12.553c-1.52,1.858-3.478,2.511-5.502,1.865c-2.128-0.682-3.34-2.309-3.453-4.775
			c-0.076-1.681,0.975-2.908,1.943-4.103c3.432-4.228,6.922-8.411,10.373-12.623c4.39-5.362,8.762-10.738,13.143-16.105
			c1.52-1.859,3.539-2.506,5.626-1.805c2.027,0.679,3.271,2.474,3.277,4.902c0.017,8.365,0.053,16.731-0.024,25.096
			c-0.023,2.356,0.411,4.434,1.564,6.55c6.004,10.999,11.859,22.079,17.768,33.131C114.535,140.039,114.774,140.448,115.024,140.889
			z"/>
		<path fill-rule="evenodd" clip-rule="evenodd" d="M83.401,109.808c1.666,3.114,3.265,6.043,4.775,9.017
			c0.148,0.293-0.14,0.947-0.408,1.289c-5.788,7.4-11.603,14.78-17.41,22.167c-0.246,0.311-0.48,0.628-0.662,0.864
			c0.469,0.997,1.041,1.875,1.304,2.84c0.577,2.121-0.446,4.307-2.355,5.373c-1.861,1.041-4.392,0.748-5.824-0.842
			c-1.306-1.447-2.529-2.978-3.647-4.573c-1.257-1.787-1.043-3.992,0.427-5.869c5.063-6.451,10.139-12.895,15.21-19.341
			C77.641,117.139,80.465,113.54,83.401,109.808z"/>
		<path fill-rule="evenodd" clip-rule="evenodd" d="M98.611,76.267c1.175,0.884,2.31,1.733,3.438,2.593
			c5.569,4.248,11.144,8.492,16.703,12.755c2.735,2.096,3.004,5.539,0.641,7.732c-1.69,1.568-4.181,1.841-6.042,0.448
			c-4.848-3.62-9.635-7.321-14.431-11.008c-0.245-0.189-0.489-0.564-0.491-0.855c-0.031-3.744-0.019-7.486-0.009-11.23
			C98.421,76.599,98.507,76.494,98.611,76.267z"/>
	</g>
	<path fill-rule="evenodd" clip-rule="evenodd" d="M91.604,46.161c-5.9-0.029-10.391,4.485-10.367,10.422
		c0.022,5.636,4.548,10.113,10.212,10.103c5.854-0.011,10.309-4.477,10.303-10.33C101.748,50.719,97.238,46.188,91.604,46.161z
		 M91.439,61.793c-2.848-0.039-5.349-2.592-5.304-5.418c0.042-2.872,2.565-5.345,5.404-5.302c2.874,0.046,5.342,2.561,5.304,5.408
		C96.803,59.347,94.274,61.831,91.439,61.793z"/>
</g>
</svg>
