<?xml version="1.0" encoding="utf-8"?>
<!-- Generator: Adobe Illustrator 16.0.4, SVG Export Plug-In . SVG Version: 6.00 Build 0)  -->
<!DOCTYPE svg PUBLIC "-//W3C//DTD SVG 1.1//EN" "http://www.w3.org/Graphics/SVG/1.1/DTD/svg11.dtd">
<svg version="1.1" id="Layer_1" xmlns="http://www.w3.org/2000/svg" xmlns:xlink="http://www.w3.org/1999/xlink" x="0px" y="0px"
	 width="180px" height="180px" viewBox="0 0 180 180" enable-background="new 0 0 180 180" xml:space="preserve">
<g>
	<path d="M160.551,112.293c-1.487-6.344-6.301-11.719-12.779-12.77c-4.521-0.732-8.158-1.508-12.636-2.465
		c-2.893-0.614-5.404-1.281-7.677-3.175c-5.637-4.689-11.269-10.382-16.908-15.065c-4.025-3.349-8.829-6.294-14.749-6.345
		c-11.684-0.101-22.299-0.428-35.17,0c-9.308,0.31-15.807,3.933-20.324,12.232c-1.771,3.253-3.424,7.577-4.976,10.94
		c-0.653,1.42-1.48,1.909-3.036,1.971c-6.242,0.24-11.29,4.319-12.627,10.424c-0.909,4.144-0.91,9.412,0.111,13.554
		c1.34,5.429,6.219,9.438,11.814,9.854h2.341c-0.029,0.401-0.054,0.804-0.051,1.217c0.049,7.734,6.247,14.013,13.846,14.029
		c7.791,0.009,14.028-6.342,14.016-14.295c-0.001-0.321-0.027-0.635-0.048-0.951h1.434c16.723,0.027,33.445,0.019,50.166,0.003
		c-0.029,0.4-0.053,0.802-0.051,1.214c0.048,7.734,6.248,14.013,13.845,14.029c7.791,0.009,14.028-6.342,14.016-14.295
		c-0.001-0.321-0.027-0.635-0.048-0.951h7.237c5.763-0.898,10.839-5.622,12.275-11.286
		C161.18,117.766,161.111,114.678,160.551,112.293z M47.777,138.752c-3.312-0.008-6.016-2.744-6.036-6.117
		c-0.018-3.509,2.62-6.177,6.107-6.164c3.389,0.008,6.034,2.662,6.039,6.048C53.894,135.986,51.175,138.756,47.777,138.752z
		 M58.371,94.931c0,0.983-0.797,1.78-1.78,1.78H44.916c-0.984,0-1.706-0.828-1.461-1.78c0.477-1.861,3.242-8.551,4.301-10.655
		c1.317-2.624,3.769-5.192,6.954-5.192c0.912,0,1.881,0,1.881,0c0.983,0,1.78,0.798,1.78,1.781V94.931z M82.008,94.711
		c0,1.104-0.896,2-2,2h-15.75c-1.104,0-2-0.896-2-2V81.083c0-1.104,0.896-2,2-2h15.75c1.104,0,2,0.896,2,2V94.711z M92.385,109.274
		c-0.742,0.018-2.363,0.003-3.101,0.003c-0.788,0-1.578,0.027-2.362-0.008c-1.356-0.059-2.325-1.039-2.299-2.275
		c0.026-1.198,0.947-2.121,2.252-2.158c1.573-0.044,4.029-0.052,5.603-0.015c1.412,0.036,2.333,0.941,2.354,2.207
		C94.851,108.339,93.885,109.232,92.385,109.274z M116.91,96.711H87.402c-0.983,0-1.78-0.797-1.78-1.78V80.864
		c0-0.983,0.797-1.781,1.78-1.781c0,0,12.36,0,13.272,0c3.268,0,8.062,4.789,9.979,7.014c2.692,3.123,4.839,5.206,6.828,7.685
		C118.098,94.548,118.667,96.711,116.91,96.711z M127.178,138.752c-3.327-0.001-6.064-2.74-6.08-6.081
		c-0.011-3.527,2.597-6.192,6.083-6.208c3.383-0.014,6.035,2.615,6.075,6.024C133.299,135.977,130.602,138.752,127.178,138.752z"/>
	<path opacity="0.4" fill-rule="evenodd" clip-rule="evenodd" d="M89.284,109.277c-0.788,0-1.578,0.027-2.362-0.008
		c-1.356-0.059-2.325-1.039-2.299-2.275c0.026-1.198,0.947-2.121,2.252-2.158c1.573-0.044,4.029-0.052,5.603-0.015
		c1.412,0.036,2.333,0.941,2.354,2.207c0.019,1.311-0.947,2.204-2.447,2.246C91.643,109.292,90.021,109.277,89.284,109.277z"/>
	<path opacity="0.4" fill-rule="evenodd" clip-rule="evenodd" d="M127.181,126.463c3.383-0.014,6.035,2.615,6.075,6.024
		c0.043,3.489-2.654,6.265-6.078,6.265c-3.327-0.001-6.064-2.74-6.08-6.081C121.087,129.144,123.694,126.479,127.181,126.463z"/>
	<path opacity="0.4" fill-rule="evenodd" clip-rule="evenodd" d="M53.888,132.519c0.006,3.468-2.713,6.237-6.11,6.233
		c-3.312-0.008-6.016-2.744-6.036-6.117c-0.018-3.509,2.62-6.177,6.107-6.164C51.237,126.479,53.883,129.133,53.888,132.519z"/>
	<g opacity="0.4">
		<path d="M62.258,94.711c0,1.104,0.896,2,2,2h15.75c1.104,0,2-0.896,2-2V81.083c0-1.104-0.896-2-2-2h-15.75c-1.104,0-2,0.896-2,2
			V94.711z"/>
		<path d="M43.455,94.931c-0.245,0.952,0.477,1.78,1.461,1.78h11.675c0.983,0,1.78-0.797,1.78-1.78V80.864
			c0-0.983-0.797-1.781-1.78-1.781c0,0-0.969,0-1.881,0c-3.186,0-5.637,2.568-6.954,5.192C46.697,86.38,43.932,93.069,43.455,94.931
			z"/>
		<path d="M117.482,93.781c0.615,0.767,1.185,2.93-0.572,2.93H87.402c-0.983,0-1.78-0.797-1.78-1.78V80.864
			c0-0.983,0.797-1.781,1.78-1.781c0,0,12.36,0,13.272,0c3.268,0,8.062,4.789,9.979,7.014
			C113.347,89.22,115.493,91.303,117.482,93.781z"/>
	</g>
</g>
</svg>
