<?xml version="1.0" encoding="utf-8"?>
<!-- Generator: Adobe Illustrator 16.0.4, SVG Export Plug-In . SVG Version: 6.00 Build 0)  -->
<!DOCTYPE svg PUBLIC "-//W3C//DTD SVG 1.1//EN" "http://www.w3.org/Graphics/SVG/1.1/DTD/svg11.dtd">
<svg version="1.1" id="Layer_1" xmlns="http://www.w3.org/2000/svg" xmlns:xlink="http://www.w3.org/1999/xlink" x="0px" y="0px"
	 width="180px" height="180px" viewBox="0 0 180 180" enable-background="new 0 0 180 180" xml:space="preserve">
<g>
	<path d="M83.597,30.653c3.454,0,6.906,0,10.358,0c2.41,0.622,4.564,1.648,6.272,3.559c1.299,1.454,2.771,2.753,4.125,4.158
		c1.105,1.146,2.394,1.677,4.004,1.663c4.997-0.043,9.993-0.083,14.988,0.034c1.598,0.038,3.271,0.341,4.763,0.915
		c4.505,1.734,7.163,6.025,7.165,11.184c0.003,14.17,0.006,28.34,0.006,42.51c0.001,14.852,0.013,29.703-0.012,44.555
		c-0.008,6.053-2.907,9.967-8.666,11.892c-0.186,0.061-0.335,0.228-0.584,0.403c0.444,0.345,0.787,0.63,1.149,0.892
		c5.98,4.359,11.961,8.715,17.944,13.067c2.356,1.714,2.386,3.036,0.092,4.739c-36.799,0-73.599,0-110.401,0
		c-2.293-1.685-2.273-3.017,0.085-4.733c5.831-4.245,11.67-8.486,17.502-12.735c0.414-0.301,0.809-0.63,1.33-1.04
		c-1.491-0.385-2.793-0.588-3.989-1.051c-4.836-1.882-7.269-6.007-7.266-12.042c0.006-28.782,0.01-57.565,0-86.35
		c-0.003-7.275,4.918-12.254,12.177-12.254c4.497,0,8.992-0.104,13.484,0.048c2.523,0.085,4.396-0.731,6.129-2.549
		C76.94,34.692,79.402,31.466,83.597,30.653z M46.967,114.461c0.54,0,0.982,0,1.427,0c26.936,0,53.871-0.012,80.809,0.03
		c1.352,0.001,1.638-0.409,1.634-1.69c-0.045-14.353-0.026-28.707-0.026-43.061c0-1.996-0.003-2.01-1.98-2.01
		c-26.617-0.004-53.238-0.004-79.854,0c-2.082,0-2.102,0.015-2.103,2.181c-0.004,14.354,0.001,28.706,0.01,43.061
		C46.883,113.416,46.933,113.86,46.967,114.461z M47.059,118.926c-0.079,0.447-0.18,0.752-0.18,1.059
		c0.004,6.678-0.077,13.354,0.058,20.028c0.088,4.313,3.158,7.075,7.52,7.077c22.89,0.005,45.78,0.005,68.673,0.001
		c4.645,0,7.675-3.034,7.678-7.666c0.004-6.313-0.034-12.627,0.029-18.939c0.012-1.274-0.375-1.588-1.609-1.587
		c-26.889,0.033-53.776,0.027-80.664,0.027C48.071,118.926,47.583,118.926,47.059,118.926z M88.916,63.363c0-0.004,0-0.007,0-0.011
		c13.399,0,26.8-0.023,40.201,0.034c1.432,0.007,1.756-0.428,1.714-1.775c-0.093-3.224-0.007-6.451-0.029-9.676
		c-0.029-4.425-3.052-7.426-7.473-7.434c-5.041-0.011-10.083-0.02-15.125,0.002c-2.743,0.011-5.031-0.987-6.947-2.921
		c-1.565-1.579-3.153-3.141-4.712-4.729c-1.11-1.131-2.408-1.686-4.02-1.647c-2.45,0.059-4.905,0.056-7.358,0.001
		c-1.604-0.038-2.911,0.498-4.023,1.631c-1.623,1.652-3.267,3.288-4.917,4.914c-1.866,1.836-4.102,2.763-6.738,2.751
		c-4.906-0.021-9.813,0-14.719,0c-5.007,0.001-7.841,2.803-7.885,7.829c-0.025,2.999-0.02,5.996-0.02,8.995
		c0,2.029,0.004,2.036,1.987,2.036C62.206,63.363,75.562,63.363,88.916,63.363z M42.752,165.286
		c0.045,0.084,0.088,0.168,0.132,0.251c31.434,0,62.865,0,94.727,0c-2.31-1.67-4.27-3.117-6.271-4.504
		c-0.295-0.206-0.784-0.173-1.185-0.173c-26.758-0.01-53.517-0.01-80.274-0.001c-0.439,0-0.976-0.004-1.307,0.225
		C46.607,162.447,44.688,163.878,42.752,165.286z M55.48,156.006c0.034,0.086,0.068,0.17,0.102,0.257c22.933,0,45.865,0,69.235,0
		c-2.039-1.502-3.707-2.806-5.461-3.979c-0.635-0.424-1.475-0.732-2.229-0.747c-3.951-0.076-7.903-0.042-11.854-0.044
		c-13.901,0-27.8-0.005-41.7,0.011c-0.754,0.001-1.665-0.063-2.24,0.309C59.32,153.114,57.424,154.593,55.48,156.006z"/>
	<path fill-rule="evenodd" clip-rule="evenodd" d="M54.242,100.699c-2.172,0.048-3.26-1.699-2.431-3.21
		c0.19-0.349,0.483-0.652,0.77-0.938c3.742-3.756,7.487-7.506,11.242-11.252c1.226-1.221,2.608-1.339,3.567-0.332
		c0.956,1.007,0.836,2.218-0.388,3.45c-3.776,3.788-7.548,7.575-11.353,11.332C55.169,100.229,54.505,100.524,54.242,100.699z"/>
	<path fill-rule="evenodd" clip-rule="evenodd" d="M114.084,110.327c-0.653-0.542-1.429-0.952-1.85-1.594
		c-0.584-0.896-0.241-1.834,0.504-2.582c1.987-1.994,3.98-3.986,5.973-5.979c1.155-1.156,2.295-2.327,3.475-3.461
		c1.102-1.06,2.298-1.109,3.259-0.196c0.949,0.897,0.92,2.291-0.151,3.374c-3.098,3.136-6.209,6.256-9.352,9.344
		C115.518,109.65,114.894,109.862,114.084,110.327z"/>
	<path fill-rule="evenodd" clip-rule="evenodd" d="M53.615,87.07c-0.66-0.56-1.417-0.98-1.846-1.619
		c-0.616-0.924-0.181-1.84,0.543-2.57c2.105-2.129,4.228-4.243,6.347-6.363c1.025-1.026,2.036-2.07,3.088-3.073
		c1.058-1.009,2.38-1.058,3.269-0.17c0.883,0.881,0.877,2.274-0.119,3.284c-3.123,3.165-6.269,6.312-9.44,9.43
		C55.032,86.404,54.409,86.614,53.615,87.07z"/>
	<path fill-rule="evenodd" clip-rule="evenodd" d="M79.665,74.773c0.052,1.456-3.694,5.131-5.138,5.041
		c-1.552-0.096-2.693-1.895-1.784-3.149c1.021-1.4,2.298-2.683,3.686-3.722C77.69,71.997,79.61,73.195,79.665,74.773z"/>
	<path fill-rule="evenodd" clip-rule="evenodd" d="M69.972,84.492c-1.207-0.021-2.186-1.103-2.133-2.354
		c0.054-1.256,1.346-2.517,2.593-2.529c1.231-0.01,2.244,1.028,2.214,2.268C72.608,83.161,71.23,84.512,69.972,84.492z"/>
	<path fill-rule="evenodd" clip-rule="evenodd" d="M61.083,123.845c5.08,0.083,9.18,4.265,9.083,9.271
		c-0.097,5.123-4.312,9.159-9.45,9.049c-5.158-0.111-9.04-4.224-8.956-9.483C51.839,127.734,56.031,123.763,61.083,123.845z
		 M56.227,133.022c0.011,2.623,2.133,4.757,4.734,4.763c2.558,0.003,4.734-2.215,4.71-4.804c-0.024-2.614-2.179-4.774-4.752-4.763
		C58.342,128.231,56.219,130.403,56.227,133.022z"/>
	<path fill-rule="evenodd" clip-rule="evenodd" d="M116.703,142.154c-5.057,0.009-9.094-3.986-9.115-9.016
		c-0.021-5.297,3.986-9.328,9.254-9.3c5.027,0.023,9.052,4.065,9.057,9.097C125.903,138.16,121.927,142.146,116.703,142.154z
		 M116.693,137.787c2.53,0.035,4.789-2.183,4.823-4.739c0.034-2.54-2.169-4.788-4.734-4.827c-2.534-0.039-4.785,2.169-4.823,4.731
		C111.921,135.475,114.15,137.753,116.693,137.787z"/>
	<path fill-rule="evenodd" clip-rule="evenodd" d="M97.997,49.361c-0.005,4.992-4.091,9.061-9.095,9.057
		c-5.171-0.001-9.329-4.117-9.286-9.191c0.044-5.027,4.213-9.183,9.217-9.191C93.919,40.025,98.003,44.185,97.997,49.361z
		 M93.534,49.361c0.054-2.658-2.017-4.833-4.628-4.857c-2.605-0.023-4.785,2.111-4.817,4.721c-0.034,2.557,2.043,4.698,4.607,4.753
		C91.392,54.036,93.479,52.045,93.534,49.361z"/>
</g>
</svg>
