<?xml version="1.0" encoding="utf-8"?>
<!-- Generator: Adobe Illustrator 16.0.4, SVG Export Plug-In . SVG Version: 6.00 Build 0)  -->
<!DOCTYPE svg PUBLIC "-//W3C//DTD SVG 1.1//EN" "http://www.w3.org/Graphics/SVG/1.1/DTD/svg11.dtd">
<svg version="1.1" id="Layer_1" xmlns="http://www.w3.org/2000/svg" xmlns:xlink="http://www.w3.org/1999/xlink" x="0px" y="0px"
	 width="180px" height="180px" viewBox="0 0 180 180" enable-background="new 0 0 180 180" xml:space="preserve">
<g>
	<path d="M147.163,161.319c-1.307-1.035-2.705-1.985-4.062-2.972c-5.377-3.913-10.891-7.699-16.113-11.799
		c3.016-0.767,5.9-1.399,8.212-3.657c1.945-1.888,3.31-5.72,3.402-8.398c0.203-5.64,0.175-87.192,0-90.797
		c-0.227-4.89-4.677-8.44-9.48-9.443c-3.124-0.657-6.52-0.333-9.696-0.345c-1.854-0.008-3.717-0.004-5.569,0.036
		c-1.571,0.032-3.163,0.187-4.7-0.247c-2.757-0.776-4.43-3.164-6.334-5.123c-1.851-1.908-3.962-3.596-6.548-4.307
		c0.801,0.032,1.217,0.007-0.712-0.181c-1.757-0.172-7.645-0.037-10.303-0.007c0.292-0.067,0.198-0.093-0.821,0.007
		c-2.956,0.287-5.241,2.405-7.261,4.487c-1.903,1.959-3.576,4.347-6.333,5.123c-1.537,0.434-3.129,0.279-4.7,0.247
		c-1.853-0.04-3.716-0.044-5.569-0.036c-3.177,0.012-6.573-0.312-9.696,0.345c-4.804,1.003-9.254,4.554-9.48,9.443
		c-0.175,3.604-0.203,85.157,0,90.797c0.093,2.679,1.457,6.511,3.402,8.398c2.312,2.258,5.196,2.891,8.212,3.657
		c-5.223,4.1-10.736,7.886-16.113,11.799c-1.356,0.986-2.755,1.937-4.062,2.972c-0.806,0.643-1.772,1.6-1.405,2.729
		c0.173,0.543,0.578,0.988,0.991,1.37c0.739,0.68,1.276,0.578,2.25,0.578c1.709,0,108.944,0,110.653,0
		c0.974,0,1.511,0.102,2.25-0.578c0.413-0.382,0.818-0.827,0.991-1.37C148.936,162.919,147.969,161.962,147.163,161.319z
		 M60.765,135.539c-4.881-0.116-8.53-4.017-8.464-8.987c0.077-4.668,4.033-8.427,8.822-8.354c4.794,0.076,8.679,4.023,8.597,8.76
		C69.624,131.809,65.63,135.631,60.765,135.539z M85.64,105.613c0,1.104-0.896,2-2,2H50.434c-1.104,0-2-0.896-2-2V65.071
		c0-1.104,0.896-2,2-2H83.64c1.104,0,2,0.896,2,2V105.613z M81.07,43.625c0.036-4.764,3.982-8.701,8.716-8.714
		c4.814-0.006,8.68,3.938,8.67,8.846c-0.011,4.716-3.866,8.557-8.604,8.551C84.972,52.308,81.024,48.407,81.07,43.625z
		 M93.886,105.613V65.071c0-1.104,0.896-2,2-2h33.195c1.104,0,2,0.896,2,2v40.542c0,1.104-0.896,2-2,2H95.886
		C94.781,107.613,93.886,106.718,93.886,105.613z M118.492,135.525c-4.775,0.009-8.6-3.783-8.611-8.541
		c-0.015-5.021,3.78-8.817,8.757-8.791c4.764,0,8.562,3.843,8.578,8.591C127.221,131.746,123.442,135.513,118.492,135.525z"/>
	<path opacity="0.4" d="M61.123,118.197c4.794,0.076,8.679,4.023,8.597,8.76c-0.096,4.852-4.09,8.674-8.955,8.582
		c-4.881-0.116-8.53-4.017-8.464-8.987C52.378,121.884,56.334,118.125,61.123,118.197z"/>
	<path opacity="0.4" d="M118.492,135.525c-4.775,0.009-8.6-3.783-8.611-8.541c-0.015-5.021,3.78-8.817,8.757-8.791
		c4.764,0,8.562,3.843,8.578,8.591C127.221,131.746,123.442,135.513,118.492,135.525z"/>
	<path opacity="0.4" d="M98.456,43.757c-0.011,4.716-3.866,8.557-8.604,8.551c-4.881,0-8.828-3.9-8.782-8.683
		c0.036-4.764,3.982-8.701,8.716-8.714C94.601,34.905,98.466,38.849,98.456,43.757z"/>
	<g opacity="0.4">
		<path d="M48.434,105.613c0,1.104,0.896,2,2,2H83.64c1.104,0,2-0.896,2-2V65.071c0-1.104-0.896-2-2-2H50.434c-1.104,0-2,0.896-2,2
			V105.613z"/>
	</g>
	<g opacity="0.4">
		<path d="M93.886,105.613c0,1.104,0.896,2,2,2h33.195c1.104,0,2-0.896,2-2V65.071c0-1.104-0.896-2-2-2H95.886c-1.104,0-2,0.896-2,2
			V105.613z"/>
	</g>
</g>
</svg>
