<?xml version="1.0" encoding="utf-8"?>
<!-- Generator: Adobe Illustrator 16.0.4, SVG Export Plug-In . SVG Version: 6.00 Build 0)  -->
<!DOCTYPE svg PUBLIC "-//W3C//DTD SVG 1.1//EN" "http://www.w3.org/Graphics/SVG/1.1/DTD/svg11.dtd">
<svg version="1.1" id="Layer_1" xmlns="http://www.w3.org/2000/svg" xmlns:xlink="http://www.w3.org/1999/xlink" x="0px" y="0px"
	 width="180px" height="180px" viewBox="0 0 180 180" enable-background="new 0 0 180 180" xml:space="preserve">
<path fill-rule="evenodd" clip-rule="evenodd" d="M164.498,118.216c-2.865-17.933-20.488-28.896-37.915-23.542
	c-1.071,0.331-1.518,0.154-1.993-0.854c-4.043-8.598-8.145-17.168-12.228-25.749c-0.238-0.501-0.444-1.018-0.722-1.655
	c1.644-0.093,3.061-0.062,4.441-0.279c3.154-0.494,5.089-3.707,3.995-6.704c-0.634-1.732-1.399-3.452-2.388-4.996
	c-0.432-0.673-1.598-1.248-2.392-1.201c-0.731,0.043-1.706,0.842-2.028,1.556c-0.307,0.669-0.053,1.716,0.226,2.499
	c0.446,1.251,1.116,2.422,1.714,3.674c-0.389,0.123-0.525,0.197-0.66,0.197c-4.88,0.014-9.763,0.042-14.642,0.008
	c-1.262-0.009-2.199-0.68-2.746-1.865c-0.693-1.506-1.402-3.004-2.146-4.483c-0.779-1.552-2.102-2.077-3.487-1.445
	c-1.325,0.606-1.846,2.102-1.177,3.587c0.762,1.688,1.547,3.365,2.405,5.006c1.261,2.408,3.259,3.903,5.974,4.178
	c1.983,0.199,3.999,0.063,5.988,0.215c0.547,0.043,1.301,0.466,1.537,0.929c1.479,2.91,2.844,5.876,4.232,8.833
	c0.131,0.275,0.16,0.599,0.288,1.107c-0.744,0-1.318,0-1.893,0c-15.718,0-31.434,0.002-47.15-0.006c-0.63,0-1.342,0.08-1.873-0.18
	c-0.701-0.337-1.484-0.846-1.834-1.498c-0.999-1.86,0.383-3.873,2.615-3.887c5.223-0.029,10.447,0.014,15.668-0.021
	c1.686-0.01,2.735-1.072,2.735-2.593c-0.001-1.516-1.054-2.519-2.771-2.523c-5.418-0.019-10.837-0.072-16.254,0.021
	c-4.474,0.077-7.976,4.355-7.352,8.778c0.593,4.204,3.598,6.87,7.867,6.957c1.085,0.021,2.173,0.002,3.578,0.002
	c-2.668,4.745-5.122,9.107-7.534,13.397c-0.254,0.014-0.36,0.048-0.441,0.019c-0.411-0.149-0.819-0.313-1.227-0.473
	c-4.737-1.829-9.631-2.434-14.649-1.699c-15.659,2.294-26.55,16.241-25.027,31.987c1.205,12.447,10.274,22.756,22.526,25.574
	c1.555,0.356,3.137,0.604,4.706,0.903c1.271,0,2.538,0,3.807,0c1.667-0.314,3.345-0.569,4.996-0.951
	c11.628-2.693,20.772-12.834,22.169-24.621c0.119-1.006,0.486-1.398,1.456-1.315c0.337,0.03,0.687,0.038,1.023-0.013
	c2.375-0.357,3.782,0.281,5.001,2.746c2.7,5.448,9.79,6.916,14.875,3.533c5.103-3.394,6.276-10.489,2.454-15.283
	c-0.684-0.86-0.789-1.423-0.207-2.396c5.278-8.827,10.495-17.692,15.729-26.543c0.294-0.494,0.61-0.976,1.113-1.781
	c1.962,4.124,3.804,7.986,5.653,11.864c-1.192,0.866-2.307,1.574-3.305,2.418c-9.487,8.017-13.234,18.202-10.117,30.212
	c3.075,11.853,11.123,19.007,23.173,21.522c1.087,0.228,2.187,0.405,3.279,0.607c1.27,0,2.539,0,3.807,0
	c1.614-0.309,3.24-0.569,4.841-0.932c11.97-2.702,21.162-13.129,22.381-25.345c0.042-0.427,0.207-0.841,0.314-1.259
	c0-1.272,0-2.541,0-3.812C164.771,119.836,164.625,119.025,164.498,118.216z M58.31,103.075c4.827,2.284,10.487,11.949,9.862,16.848
	c-6.303,0-12.623,0-19.343,0C52.083,114.142,55.199,108.605,58.31,103.075z M53.598,144.928c-10.491,4.37-22.879,0.645-29.235-8.795
	c-6.508-9.664-5.31-22.361,2.844-30.603c7.771-7.851,19.53-8.781,26.604-5.02c-0.244,0.46-0.478,0.927-0.732,1.383
	c-3.492,6.2-6.982,12.397-10.474,18.596c-1.588,2.818-0.548,4.604,2.727,4.607c6.975,0.011,13.95-0.001,20.927-0.007
	c0.625,0,1.25,0,1.838,0C69.321,131.292,61.753,141.529,53.598,144.928z M81.968,115.698c-0.817,0.997-1.299,2.261-2.019,3.348
	c-0.272,0.418-0.782,0.902-1.224,0.94c-1.354,0.119-2.727,0.024-4.091,0.038c-0.798,0.011-1.083-0.365-1.184-1.136
	c-1.061-8.142-4.92-14.688-11.411-19.674c-0.825-0.635-0.985-1.073-0.442-2.004c2.04-3.491,3.986-7.037,5.973-10.559
	c0.207-0.364,0.461-0.702,0.811-1.23c0.917,1.849,1.742,3.497,2.552,5.148c3.751,7.652,7.486,15.313,11.268,22.949
	C82.627,114.382,82.608,114.912,81.968,115.698z M89.823,128.018c-2.959-0.056-5.371-2.507-5.35-5.439
	c0.019-3.041,2.453-5.484,5.469-5.494c2.977-0.008,5.41,2.49,5.389,5.535C95.31,125.664,92.85,128.073,89.823,128.018z
	 M109.803,83.756c-5.41,9.145-10.842,18.274-16.214,27.438c-0.544,0.928-1.097,1.183-2.095,0.979c-0.8-0.165-1.697-0.343-2.45-0.142
	c-1.368,0.367-1.952-0.078-2.546-1.312c-4.298-8.904-8.682-17.764-13.037-26.641c-0.228-0.469-0.438-0.949-0.781-1.695
	c12.746,0,25.157,0,37.806,0C110.209,82.941,110.034,83.364,109.803,83.756z M147.523,143.511
	c-11.687,6.719-26.612,2.619-33.196-9.159c-6.681-11.951-1.971-26.01,8.489-32.289c0.321,0.653,0.602,1.204,0.867,1.762
	c3.036,6.382,6.042,12.776,9.141,19.125c0.391,0.801,1.166,1.724,1.94,1.934c0.758,0.207,1.938-0.192,2.587-0.738
	c0.96-0.805,0.736-2.027,0.224-3.11c-2.656-5.59-5.32-11.176-7.978-16.767c-0.684-1.438-1.366-2.876-2.048-4.314
	c8.005-3.653,21.956-1.304,28.85,10.515C163.112,121.978,159.106,136.853,147.523,143.511z"/>
</svg>
