<?xml version="1.0" encoding="utf-8"?>
<!-- Generator: Adobe Illustrator 16.0.4, SVG Export Plug-In . SVG Version: 6.00 Build 0)  -->
<!DOCTYPE svg PUBLIC "-//W3C//DTD SVG 1.1//EN" "http://www.w3.org/Graphics/SVG/1.1/DTD/svg11.dtd">
<svg version="1.1" id="Layer_1" xmlns="http://www.w3.org/2000/svg" xmlns:xlink="http://www.w3.org/1999/xlink" x="0px" y="0px"
	 width="180px" height="180px" viewBox="0 0 180 180" enable-background="new 0 0 180 180" xml:space="preserve">
<g>
	<path d="M140.142,47.383h-1.397v-9c0-6.6-5.547-10.615-12-12c-9.316-2-21.384-4-36.942-4c-16.212,0-26.624,1.75-36.545,4
		c-6.436,1.46-12,5.4-12,12v9h-1.397c-3.3,0-6,2.7-6,6v8c0,3.3,2.7,6,6,6h1.397v54.344c0,5.882,4.293,10.008,9.898,10.837v8.132
		c0,3.3,2.7,6,6,6h2.796c3.3,0,6-2.7,6-6v-7.969h23.881c0.112,0,0.225,0,0.337,0h23.838v7.969c0,3.3,2.7,6,6,6h2.796
		c3.3,0,6-2.7,6-6v-8.126c5.626-0.815,9.941-4.946,9.941-10.843V67.383h1.397c3.3,0,6-2.7,6-6v-8
		C146.142,50.083,143.441,47.383,140.142,47.383z M74.609,35.557c0-1.104,0.896-2,2-2h27.195c1.104,0,2,0.896,2,2v1.542
		c0,1.104-0.896,2-2,2H76.609c-1.104,0-2-0.896-2-2V35.557z M60.764,122.238c-4.881-0.116-8.529-4.017-8.463-8.987
		c0.076-4.668,4.033-8.427,8.822-8.354c4.793,0.076,8.678,4.023,8.596,8.76C69.623,118.508,65.629,122.33,60.764,122.238z
		 M53.434,95.312c-1.105,0-2-0.896-2-2V49.771c0-1.104,0.895-2,2-2h72.646c1.105,0,2,0.896,2,2v43.542c0,1.104-0.895,2-2,2H53.434z
		 M109.881,113.684c-0.016-5.021,3.779-8.817,8.756-8.791c4.764,0,8.562,3.843,8.578,8.591c0.006,4.962-3.773,8.729-8.723,8.741
		C113.717,122.233,109.893,118.441,109.881,113.684z"/>
	<path opacity="0.4" d="M60.764,122.238c-4.881-0.116-8.529-4.017-8.463-8.987c0.076-4.668,4.033-8.427,8.822-8.354
		c4.793,0.076,8.678,4.023,8.596,8.76C69.623,118.508,65.629,122.33,60.764,122.238z"/>
	<path opacity="0.4" d="M118.492,122.225c-4.775,0.009-8.6-3.783-8.611-8.541c-0.016-5.021,3.779-8.817,8.756-8.791
		c4.764,0,8.562,3.843,8.578,8.591C127.221,118.445,123.441,122.212,118.492,122.225z"/>
	<path opacity="0.4" d="M128.08,93.312c0,1.104-0.895,2-2,2H53.434c-1.105,0-2-0.896-2-2V49.771c0-1.104,0.895-2,2-2h72.646
		c1.105,0,2,0.896,2,2V93.312z"/>
	<path opacity="0.4" d="M74.609,37.099v-1.542c0-1.104,0.896-2,2-2h27.195c1.104,0,2,0.896,2,2v1.542c0,1.104-0.896,2-2,2H76.609
		C75.505,39.099,74.609,38.203,74.609,37.099z"/>
</g>
</svg>
