<svg width="0" height="0" style="position:absolute"><symbol viewBox="0 0 180 180" id="icon-maneuver-01"><g fill="none" stroke="#000" stroke-width="16" stroke-linecap="round" stroke-miterlimit="10"><path d="M50.152 83.902L36.655 33.456 87.035 20"/><path d="M143.345 160V91.5L36.655 33.457"/></g></symbol><symbol viewBox="0 0 180 180" id="icon-maneuver-02"><path opacity=".4" fill="none" stroke="#000" stroke-width="14" stroke-linecap="square" stroke-miterlimit="10" d="M143.9 147V20"/><g fill="none" stroke="#000" stroke-width="16" stroke-linecap="round" stroke-miterlimit="10"><path d="M50.15 83.9L36.654 33.456 87.034 20"/><path d="M143.342 160V91.5L36.654 33.455"/></g></symbol><symbol viewBox="0 0 180 180" id="icon-maneuver-03"><g fill="none" stroke="#000" stroke-width="16" stroke-linecap="round" stroke-miterlimit="10"><path d="M85.24 111.45l-52.415-5.34 5.37-52.485"/><path d="M147.175 160V20h-7.188L36.42 104.477"/></g></symbol><symbol viewBox="0 0 180 180" id="icon-maneuver-04"><g fill="none" stroke="#000" stroke-width="16" stroke-linecap="round" stroke-miterlimit="10"><path d="M68.29 93.605L32.76 55.565 70.87 20"/><path d="M147.238 160V55.637H39.26"/></g></symbol><symbol viewBox="0 0 180 180" id="icon-maneuver-05"><g stroke="#000" stroke-width="12" stroke-linecap="round" stroke-miterlimit="10"><path stroke-linejoin="round" d="M19.03 61.366c0 13.698 4.713 24.272 11.235 38.425C37.482 115.478 58.267 160 58.267 160s17.906-42.653 26.095-60.21c5.302-11.347 13.136-24.726 13.136-38.424C97.498 38.526 79.94 20 58.268 20 36.587 20 19.03 38.527 19.03 61.366zm19.237-8.146c0-11.047 8.956-20.003 20-20.003 11.04 0 20 8.957 20 20.003 0 11.042-8.96 19.997-20 19.997-11.044 0-20-8.953-20-19.997z"/><path fill="none" d="M132.008 143.818L106.8 116.86l27.042-25.265M160.97 116.86h-49.556"/></g></symbol><symbol viewBox="0 0 180 180" id="icon-maneuver-06"><g stroke="#000" stroke-width="12" stroke-linecap="round" stroke-miterlimit="10"><path stroke-linejoin="round" d="M121.735 20c-21.676 0-39.232 18.527-39.232 41.366 0 13.698 7.834 27.077 13.137 38.425 8.187 17.557 26.095 60.21 26.095 60.21s20.783-44.523 28-60.21c6.523-14.15 11.234-24.726 11.234-38.424 0-22.84-17.557-41.366-39.235-41.366zm0 53.217c-11.04 0-20-8.955-20-19.997 0-11.047 8.96-20.004 20-20.004 11.043 0 20 8.957 20 20.004 0 11.044-8.957 19.997-20 19.997z"/><path fill="none" d="M46.16 91.596L73.2 116.86l-25.207 26.957M68.586 116.86H19.032"/></g></symbol><symbol viewBox="0 0 180 180" id="icon-maneuver-07"><g fill="none" stroke="#000" stroke-linecap="round" stroke-miterlimit="10"><path stroke-width="16" d="M24.136 159c34.75 0 62.895-28.405 62.895-63.425M92.967 95.575c0 35.02 28.146 63.425 62.896 63.425M48.86 63.175L90.8 24l39.212 42.02"/><path stroke-width="22" d="M90 37.286v58.587"/></g></symbol><symbol viewBox="0 0 180 180" id="icon-maneuver-08"><path opacity=".4" fill="none" stroke="#000" stroke-width="14" stroke-linecap="square" stroke-miterlimit="10" d="M36.377 20v127"/><g fill="none" stroke="#000" stroke-width="16" stroke-linecap="round" stroke-miterlimit="10"><path d="M93.243 20l50.38 13.455-13.496 50.447"/><path d="M143.623 33.455L36.936 91.5V160"/></g></symbol><symbol viewBox="0 0 180 180" id="icon-maneuver-09"><g fill="none" stroke="#000" stroke-width="16" stroke-linecap="round" stroke-miterlimit="10"><path d="M141.804 53.625l5.37 52.484-52.413 5.34"/><path d="M143.58 104.477L40.013 20h-7.188v140"/></g></symbol><symbol viewBox="0 0 180 180" id="icon-maneuver-10"><g fill="none" stroke="#000" stroke-width="16" stroke-linecap="round" stroke-miterlimit="10"><path d="M109.13 20l38.108 35.566-35.527 38.04"/><path d="M140.74 55.637H32.762V160"/></g></symbol><symbol viewBox="0 0 180 180" id="icon-maneuver-11"><g fill="none" stroke="#000" stroke-width="16" stroke-linecap="round" stroke-miterlimit="10"><path d="M92.965 20l50.38 13.455-13.497 50.447"/><path d="M143.345 33.455L36.655 91.5V160"/></g></symbol><symbol viewBox="0 0 180 180" id="icon-maneuver-12"><g fill="none" stroke="#000" stroke-width="16" stroke-linecap="round" stroke-miterlimit="10"><path d="M65.347 131.794L25 88.594l43.277-40.388M155 88.672H32.382"/></g></symbol><symbol viewBox="0 0 180 180" id="icon-maneuver-13"><g fill="none" stroke="#000" stroke-width="16" stroke-linecap="round" stroke-miterlimit="10"><path d="M111.723 48.206L155 88.593l-40.347 43.2M147.618 88.672H25"/></g></symbol><symbol viewBox="0 0 180 180" id="icon-maneuver-14"><g fill="none" stroke="#000" stroke-width="16" stroke-linecap="round" stroke-miterlimit="10"><path d="M46.278 68.275L88.528 23l45.193 42.21M88.613 30.722V159"/></g></symbol><symbol viewBox="0 0 180 180" id="icon-maneuver-15"><g fill="none" stroke="#000" stroke-width="16" stroke-linecap="round" stroke-miterlimit="10"><path d="M147.275 68.057l-35.628 38.176-38.107-35.59"/><path d="M111.587 96.898V20H32.725v140"/></g></symbol><symbol viewBox="0 0 180 180" id="icon-maneuver-16"><g fill="none" stroke="#000" stroke-width="16" stroke-linecap="round" stroke-miterlimit="10"><path d="M106.46 70.644l-38.107 35.59-35.628-38.177"/><path d="M147.275 160V20H68.413v76.898"/></g></symbol><symbol viewBox="0 0 180 180" id="icon-maneuver-17"><g fill="none" stroke="#000" stroke-miterlimit="10"><path opacity=".4" stroke-width="14" stroke-linecap="square" d="M123.467 89.188c0-16.433-13.328-29.764-29.766-29.764-16.435 0-29.763 13.33-29.763 29.764 0 16.435 13.33 29.764 29.764 29.764 16.44 0 29.767-13.327 29.767-29.764z"/><path stroke-width="16" stroke-linecap="round" d="M94.7 118.952c16.44 0 28.767-13.327 28.767-29.764"/><path opacity=".4" stroke-width="14" stroke-linecap="round" d="M94 27.003v24"/><path opacity=".4" stroke-width="8" stroke-linecap="round" d="M94 126.003v28"/><path opacity=".4" stroke-width="14" stroke-linecap="round" d="M57 89.003H34M66.11 111.862L47.288 122.73M146.37 66.53l-20.43 9.356"/><path stroke-width="16" stroke-linecap="round" d="M94 120.003v34M97.8 93.43l28.142-17.544 17.584 28.23"/></g></symbol><symbol viewBox="0 0 180 180" id="icon-maneuver-18"><g fill="none" stroke="#000" stroke-miterlimit="10"><path opacity=".4" stroke-width="14" stroke-linecap="square" d="M122.874 95.036c0-16.713-13.553-30.27-30.27-30.27-16.71 0-30.27 13.557-30.27 30.27 0 16.714 13.56 30.268 30.27 30.268 16.717 0 30.27-13.554 30.27-30.268z"/><path opacity=".4" stroke-width="8" stroke-linecap="round" d="M93 29.003v28"/><path stroke-width="16" stroke-linecap="round" d="M93 40.003v21"/><path opacity=".4" stroke-width="8" stroke-linecap="round" d="M93 132.003v27"/><path stroke-width="16" stroke-linecap="round" d="M93 125.003v34M69.44 47.21L92.532 22.5l24.636 23.038M93.604 125.304c16.718 0 29.27-13.554 29.27-30.268 0-16.713-13.552-30.27-30.27-30.27"/><path opacity=".4" stroke-width="14" stroke-linecap="round" d="M58 85.003H35M62.11 111.862L43.288 122.73M139.37 67.53l-20.43 9.356"/></g></symbol><symbol viewBox="0 0 180 180" id="icon-maneuver-19"><path fill-rule="evenodd" clip-rule="evenodd" stroke="#000" stroke-width="11" stroke-linecap="round" stroke-linejoin="round" stroke-miterlimit="10" d="M106.766 137.33c-4.885 7.53-23.93 9.043-27.955-.214a9.744 9.744 0 0 1-7.14 2.85c-4.416-.184-6.36-1.983-8.842-5.272l-10.707-32.81 54.42-27.347 55.16 27.347-10.708 32.81c-2.48 3.29-4.426 5.09-8.842 5.27a9.743 9.743 0 0 1-7.14-2.848c-4.024 9.257-23.07 7.744-27.954.213h-.29z"/><path clip-rule="evenodd" fill="none" stroke="#000" stroke-width="11" stroke-linecap="round" stroke-linejoin="round" stroke-miterlimit="10" d="M150.916 105.383l-7.41-36.525-11.49-4.604-2.465-22.876-12.25-2.662V19.772H96.31v18.944l-12.25 2.662-2.468 22.876-11.488 4.604-7.41 36.525"/><path opacity=".4" fill-rule="evenodd" clip-rule="evenodd" d="M107.63 157.76c-2.81 5.415-7.57 8.033-13.646 8.12-6.367.1-11.348-2.518-14.336-8.19-1.46 3.504-4.277 5.65-7.785 7.067-4.225 1.672-8.533 1.643-12.732.03-4.91-1.88-6.923-5.677-7.274-10.4-.05-.652 0-1.33 0-2.173 2.8 3.773 6.973 4.596 11.24 5.067 3.285.37 6.594.132 9.77-.783 2.773-.815 5.348-1.904 6.836-4.597 1.475 2.65 3.984 3.812 6.717 4.545 5.052 1.37 10.14 1.323 15.165-.192 2.883-.876 4.385-1.97 6.05-4.273 2.01 3.29 5.44 4.355 9.04 4.992 4.596.815 9.168.594 13.592-.984 2.174-.775 4.08-1.883 5.238-4.038 2.676 4.02 7.033 4.895 11.49 5.332 4.48.422 8.934.012 12.965-2.104 1.27-.67 2.307-1.72 3.318-2.504.74 5.454-2.273 10.433-7.307 12.18-5.503 1.895-10.747 1.41-15.634-1.678-2.217-1.425-3.105-2.47-4.746-5.398-2.848 5.445-7.73 8.09-13.95 8.112-6.238.012-11.148-2.598-14.01-8.13z"/><path fill="none" stroke="#000" stroke-width="12" stroke-linecap="round" stroke-miterlimit="10" d="M34.994 24.1l26.3 24.574L36.778 74.89M56.807 48.674H16.61"/><path fill-rule="evenodd" clip-rule="evenodd" d="M97.31 20.04h17.058v23.258h-17.06z"/></symbol><symbol viewBox="0 0 180 180" id="icon-maneuver-20"><path fill-rule="evenodd" clip-rule="evenodd" stroke="#000" stroke-width="11" stroke-linecap="round" stroke-linejoin="round" stroke-miterlimit="10" d="M106.766 137.33c-4.885 7.53-23.93 9.043-27.955-.214a9.744 9.744 0 0 1-7.14 2.85c-4.416-.184-6.36-1.983-8.842-5.272l-10.707-32.81 54.42-27.347 55.16 27.347-10.708 32.81c-2.48 3.29-4.426 5.09-8.842 5.27a9.743 9.743 0 0 1-7.14-2.848c-4.024 9.257-23.07 7.744-27.954.213h-.29z"/><path clip-rule="evenodd" fill="none" stroke="#000" stroke-width="11" stroke-linecap="round" stroke-linejoin="round" stroke-miterlimit="10" d="M150.916 105.383l-7.41-36.525-11.49-4.604-2.465-22.876-12.25-2.662V19.772H96.31v18.944l-12.25 2.662-2.468 22.876-11.488 4.604-7.41 36.525"/><path opacity=".4" fill-rule="evenodd" clip-rule="evenodd" d="M107.63 157.76c-2.81 5.415-7.57 8.033-13.646 8.12-6.367.1-11.348-2.518-14.336-8.19-1.46 3.504-4.277 5.65-7.785 7.067-4.225 1.672-8.533 1.643-12.732.03-4.91-1.88-6.923-5.677-7.274-10.4-.05-.652 0-1.33 0-2.173 2.8 3.773 6.973 4.596 11.24 5.067 3.285.37 6.594.132 9.77-.783 2.773-.815 5.348-1.904 6.836-4.597 1.475 2.65 3.984 3.812 6.717 4.545 5.052 1.37 10.14 1.323 15.165-.192 2.883-.876 4.385-1.97 6.05-4.273 2.01 3.29 5.44 4.355 9.04 4.992 4.596.815 9.168.594 13.592-.984 2.174-.775 4.08-1.883 5.238-4.038 2.676 4.02 7.033 4.895 11.49 5.332 4.48.422 8.934.012 12.965-2.104 1.27-.67 2.307-1.72 3.318-2.504.74 5.454-2.273 10.433-7.307 12.18-5.503 1.895-10.747 1.41-15.634-1.678-2.217-1.425-3.105-2.47-4.746-5.398-2.848 5.445-7.73 8.09-13.95 8.112-6.238.012-11.148-2.598-14.01-8.13z"/><path fill="none" stroke="#000" stroke-width="12" stroke-linecap="round" stroke-miterlimit="10" d="M41.13 74.89L16.61 48.675 42.913 24.1M61.295 48.674H21.1"/><path fill-rule="evenodd" clip-rule="evenodd" d="M97.31 20.04h17.058v23.258h-17.06z"/></symbol><symbol viewBox="0 0 180 180" id="icon-maneuver-21"><path stroke="#000" stroke-width="12" stroke-linecap="round" stroke-linejoin="round" stroke-miterlimit="10" d="M90 20c-21.677 0-39.233 18.527-39.233 41.366 0 13.698 7.834 27.077 13.137 38.425C72.09 117.348 90 160 90 160s20.782-44.523 28-60.21c6.522-14.15 11.233-24.726 11.233-38.424C129.233 38.526 111.677 20 90 20zm0 53.217c-11.042 0-20-8.955-20-19.997 0-11.047 8.958-20.004 20-20.004s20 8.957 20 20.004c0 11.044-8.958 19.997-20 19.997z"/></symbol></svg>