<svg width="0" height="0" style="position:absolute"><symbol viewBox="0 0 180 180" id="icon-clock"><path d="M90 30.178c32.983 0 59.822 26.84 59.822 59.822S122.982 149.822 90 149.822 30.178 122.982 30.178 90 57.018 30.178 90 30.178M90 14c-42.053 0-76 33.947-76 76 0 42.054 33.947 76 76 76 42.054 0 76-33.946 76-76 0-42.053-33.946-76-76-76z"/><path d="M119.197 86.268H95.254V58.436c0-4.277-3.5-7.777-7.777-7.777-4.278 0-7.778 3.5-7.778 7.776v35.608c0 4.278 3.5 7.778 7.777 7.778h31.72c4.277 0 7.777-3.5 7.777-7.778 0-4.276-3.5-7.776-7.777-7.776z"/></symbol><symbol viewBox="0 0 180 180" id="icon-dot"><path d="M90 14c-42.053 0-76 33.947-76 76 0 42.054 33.947 76 76 76 42.054 0 76-33.946 76-76 0-42.053-33.946-76-76-76z"/><path fill="#FFF" d="M90 22.365c37.29 0 67.635 30.346 67.635 67.635 0 37.29-30.345 67.635-67.635 67.635S22.365 127.29 22.365 90c0-37.29 30.345-67.635 67.635-67.635"/></symbol><symbol viewBox="0 0 180 180" id="icon-maneuver-00"/><symbol viewBox="0 0 180 180" id="icon-maneuver-01"><path d="M139.183 59.363L88.14 11.69 40.43 62.817a8 8 0 0 0 .39 11.307 7.97 7.97 0 0 0 5.457 2.15 7.98 7.98 0 0 0 5.85-2.54l28.487-30.526V159a8 8 0 0 0 16 0V41.498l31.647 29.56a8 8 0 0 0 10.923-11.695z"/></symbol><symbol viewBox="0 0 180 180" id="icon-maneuver-02"><path d="M117.18 42.357a8 8 0 0 0-11.306.39 8 8 0 0 0 .39 11.308l28.522 26.617H25a8 8 0 0 0 0 16h111.508l-27.7 29.662a8 8 0 0 0 .386 11.307 7.97 7.97 0 0 0 5.458 2.154 7.98 7.98 0 0 0 5.85-2.54l45.81-49.05-49.13-45.847z"/></symbol><symbol viewBox="0 0 180 180" id="icon-maneuver-03"><path d="M155 80.672H45.213l28.522-26.617A8 8 0 0 0 62.82 42.357L13.69 88.204l45.81 49.05a7.973 7.973 0 0 0 5.85 2.54 8 8 0 0 0 5.845-13.46L43.49 96.674H155a8 8 0 0 0 0-16z"/></symbol><symbol viewBox="0 0 180 180" id="icon-maneuver-04"><path d="M90 14c-24.942 0-45.233 21.248-45.233 47.366 0 12.876 5.857 24.85 11.025 35.416.928 1.896 1.834 3.75 2.674 5.545 8.044 17.25 25.822 59.57 26 59.995A6.002 6.002 0 0 0 90 166a6.003 6.003 0 0 0 5.436-3.462c.208-.445 20.873-44.718 28.013-60.235 6.322-13.72 11.784-25.568 11.784-40.937C135.234 35.248 114.94 14 90 14zm0 25.216c7.72 0 14 6.282 14 14.004 0 7.718-6.28 13.997-14 13.997s-14-6.28-14-13.997c0-7.722 6.28-14.004 14-14.004z"/></symbol><symbol viewBox="0 0 180 180" id="icon-maneuver-05"><path d="M121.735 14c-24.94 0-45.232 21.25-45.232 47.366 0 12.876 5.857 24.85 11.025 35.416.928 1.897 1.834 3.75 2.674 5.545 8.044 17.25 25.822 59.57 26 59.995A6.003 6.003 0 0 0 121.62 166h.118a6.003 6.003 0 0 0 5.437-3.462c.208-.445 20.873-44.718 28.012-60.235 6.324-13.72 11.785-25.568 11.785-40.937C166.97 35.25 146.677 14 121.735 14zm0 25.216c7.72 0 14 6.282 14 14.004 0 7.718-6.28 13.997-14 13.997s-14-6.28-14-13.997c0-7.722 6.28-14.004 14-14.004z"/><path fill="#010101" d="M50.255 87.21a6 6 0 1 0-8.192 8.77l15.927 14.88H19.032a6 6 0 0 0 0 12h40.342L43.61 139.72a6 6 0 1 0 8.765 8.195l29.307-31.34L50.255 87.21z"/></symbol><symbol viewBox="0 0 180 180" id="icon-maneuver-06"><path d="M58.267 14c-24.943 0-45.235 21.25-45.235 47.366 0 15.365 5.46 27.215 11.784 40.933 7.14 15.52 27.807 59.793 28.015 60.238A6 6 0 0 0 58.268 166h.118a6 6 0 0 0 5.415-3.678c.18-.425 17.954-42.745 26-59.992.84-1.8 1.748-3.655 2.676-5.553C97.643 86.214 103.5 74.24 103.5 61.367 103.497 35.248 83.206 14 58.266 14zm0 25.216c7.72 0 14 6.282 14 14.003 0 7.717-6.28 13.996-14 13.996s-14-6.28-14-13.997c0-7.722 6.28-14.004 14-14.004z"/><path fill="#010101" d="M160.97 110.86h-38.96l15.928-14.88a6 6 0 1 0-8.192-8.77l-31.428 29.365 29.308 31.34a5.984 5.984 0 0 0 4.384 1.903 6 6 0 0 0 4.38-10.098l-15.764-16.858h40.343a6 6 0 0 0 0-12z"/></symbol><symbol viewBox="0 0 180 180" id="icon-maneuver-07"><path d="M139.183 59.363L88.14 11.69 40.43 62.817a8 8 0 0 0 .39 11.307 7.97 7.97 0 0 0 5.457 2.15 7.98 7.98 0 0 0 5.85-2.54l28.487-30.526V159a8 8 0 0 0 16 0V41.498l31.647 29.56a8 8 0 0 0 10.923-11.695z"/></symbol><symbol viewBox="0 0 180 180" id="icon-maneuver-08"><path d="M139.183 59.363L88.14 11.69 40.43 62.817a8 8 0 0 0 .39 11.307 7.97 7.97 0 0 0 5.457 2.15 7.98 7.98 0 0 0 5.85-2.54l28.487-30.526V159a8 8 0 0 0 16 0V41.498l31.647 29.56a8 8 0 0 0 10.923-11.695z"/></symbol><symbol viewBox="0 0 180 180" id="icon-maneuver-09"><path d="M95.03 12.27c-4.272-1.14-8.653 1.397-9.793 5.666a8 8 0 0 0 5.665 9.794l31.007 8.28-93.255 50.736V160a8 8 0 0 0 16 0V96.256l86.146-46.87-8.68 32.45a8 8 0 0 0 15.456 4.133l15.566-58.18L95.03 12.27z"/></symbol><symbol viewBox="0 0 180 180" id="icon-maneuver-10"><path d="M114.59 14.15a8 8 0 1 0-10.917 11.698l23.344 21.79H24.762V160a8 8 0 0 0 16 0V63.637h87.992l-22.89 24.508a8 8 0 0 0 11.693 10.922l40.99-43.888-43.958-41.03z"/></symbol><symbol viewBox="0 0 180 180" id="icon-maneuver-11"><path d="M149.762 52.81c-.45-4.395-4.39-7.592-8.772-7.143a8 8 0 0 0-7.144 8.773l3.547 34.667L42.86 12H24.826v148a8 8 0 0 0 16 0V30.986l84.918 69.265-31.793 3.24a8 8 0 1 0 1.62 15.918l60.378-6.152-6.186-60.445z"/></symbol><symbol viewBox="0 0 180 180" id="icon-maneuver-12"><path d="M152.734 62.208a7.997 7.997 0 0 0-11.307.39L119.587 86V12H24.725v148a8 8 0 0 0 16 0V28h62.862v59.76L79 64.796a7.996 7.996 0 0 0-11.307.387 8 8 0 0 0 .386 11.307l43.955 41.052 41.09-44.026a8 8 0 0 0-.39-11.308z"/></symbol><symbol viewBox="0 0 180 180" id="icon-maneuver-13"><path d="M60.413 12v74l-21.84-23.4a8 8 0 0 0-11.697 10.915l41.09 44.026 43.954-41.05a8 8 0 0 0 .386-11.307A8 8 0 0 0 101 64.796L76.412 87.76V28h62.862v132a8 8 0 0 0 16 0V12H60.413z"/></symbol><symbol viewBox="0 0 180 180" id="icon-maneuver-14"><path d="M137.14 12L42.606 89.106l3.547-34.667a8 8 0 0 0-7.144-8.774c-4.398-.445-8.323 2.75-8.772 7.144l-6.187 60.446 60.378 6.152a8 8 0 0 0 1.62-15.917l-31.792-3.24 84.918-69.264V160a8 8 0 0 0 16 0V12H137.14z"/></symbol><symbol viewBox="0 0 180 180" id="icon-maneuver-15"><path d="M52.982 47.637L76.327 25.85A8 8 0 0 0 65.41 14.15L21.453 55.178l40.99 43.888a7.977 7.977 0 0 0 5.848 2.54 8 8 0 0 0 5.845-13.46l-22.89-24.51h87.993V160a8 8 0 0 0 16 0V47.637H52.982z"/></symbol><symbol viewBox="0 0 180 180" id="icon-maneuver-16"><path d="M58.09 36.01l31.01-8.28A8 8 0 0 0 84.97 12.27L26.857 27.79 42.424 85.97a7.988 7.988 0 0 0 9.796 5.66 8 8 0 0 0 5.66-9.796L49.2 49.388l86.145 46.868V160a8 8 0 0 0 16 0V86.746L58.09 36.01z"/></symbol><symbol viewBox="0 0 180 180" id="icon-maneuver-17"><path d="M139.183 59.363L88.14 11.69 40.43 62.817a8 8 0 0 0 .39 11.307 7.97 7.97 0 0 0 5.457 2.15 7.98 7.98 0 0 0 5.85-2.54l28.487-30.526V159a8 8 0 0 0 16 0V41.498l31.647 29.56a8 8 0 0 0 10.923-11.695z"/></symbol><symbol viewBox="0 0 180 180" id="icon-maneuver-18"><path d="M29.377 13h14v141h-14z" opacity=".4"/><path d="M95.308 12.27a7.997 7.997 0 0 0-9.794 5.666 8 8 0 0 0 5.665 9.793l31.007 8.28-93.25 50.736V160a8 8 0 0 0 16 0V96.255l86.143-46.87-8.68 32.448a8 8 0 0 0 5.66 9.795 7.975 7.975 0 0 0 2.072.274 8.005 8.005 0 0 0 7.724-5.935L153.42 27.79 95.308 12.27z"/></symbol><symbol viewBox="0 0 180 180" id="icon-maneuver-19"><path d="M136.9 13h14v141h-14z" opacity=".4"/><path d="M58.09 36.01l31.01-8.28a8 8 0 0 0 5.664-9.794 7.997 7.997 0 0 0-9.794-5.665L26.858 27.79l15.565 58.18a8.003 8.003 0 0 0 7.723 5.934c.684 0 1.38-.088 2.072-.274a8 8 0 0 0 5.66-9.795L49.2 49.388l86.144 46.87V160a8 8 0 0 0 16 0V86.746L58.092 36.01z"/></symbol><symbol viewBox="0 0 180 180" id="icon-maneuver-20"><path d="M29.377 13h14v141h-14z" opacity=".4"/><path d="M95.308 12.27a7.997 7.997 0 0 0-9.794 5.666 8 8 0 0 0 5.665 9.793l31.007 8.28-93.25 50.736V160a8 8 0 0 0 16 0V96.255l86.143-46.87-8.68 32.448a8 8 0 0 0 5.66 9.795 7.975 7.975 0 0 0 2.072.274 8.005 8.005 0 0 0 7.724-5.935L153.42 27.79 95.308 12.27z"/></symbol><symbol viewBox="0 0 180 180" id="icon-maneuver-21"><path d="M136.9 13h14v141h-14z" opacity=".4"/><path d="M58.09 36.01l31.01-8.28a8 8 0 0 0 5.664-9.794 7.997 7.997 0 0 0-9.794-5.665L26.858 27.79l15.565 58.18a8.003 8.003 0 0 0 7.723 5.934c.684 0 1.38-.088 2.072-.274a8 8 0 0 0 5.66-9.795L49.2 49.388l86.144 46.87V160a8 8 0 0 0 16 0V86.746L58.092 36.01z"/></symbol><symbol viewBox="0 0 180 180" id="icon-maneuver-22"><path d="M139.183 59.363L88.14 11.69 40.43 62.817a8 8 0 0 0 .39 11.307 7.97 7.97 0 0 0 5.457 2.15 7.98 7.98 0 0 0 5.85-2.54l28.487-30.526V159a8 8 0 0 0 16 0V41.498l31.647 29.56a8 8 0 0 0 10.923-11.695z"/></symbol><symbol viewBox="0 0 180 180" id="icon-maneuver-23"><path d="M29.377 13h14v141h-14z" opacity=".4"/><path d="M95.308 12.27a7.997 7.997 0 0 0-9.794 5.666 8 8 0 0 0 5.665 9.793l31.007 8.28-93.25 50.736V160a8 8 0 0 0 16 0V96.255l86.143-46.87-8.68 32.448a8 8 0 0 0 5.66 9.795 7.975 7.975 0 0 0 2.072.274 8.005 8.005 0 0 0 7.724-5.935L153.42 27.79 95.308 12.27z"/></symbol><symbol viewBox="0 0 180 180" id="icon-maneuver-24"><path d="M136.9 13h14v141h-14z" opacity=".4"/><path d="M58.09 36.01l31.01-8.28a8 8 0 0 0 5.664-9.794 7.997 7.997 0 0 0-9.794-5.665L26.858 27.79l15.565 58.18a8.003 8.003 0 0 0 7.723 5.934c.684 0 1.38-.088 2.072-.274a8 8 0 0 0 5.66-9.795L49.2 49.388l86.144 46.87V160a8 8 0 0 0 16 0V86.746L58.092 36.01z"/></symbol><symbol viewBox="0 0 180 180" id="icon-maneuver-25"><path d="M155.863 151c-30.06 0-54.54-24.52-54.88-54.787.003-.114.017-.226.017-.34V46.656l23.163 24.82a7.978 7.978 0 0 0 5.85 2.543 8 8 0 0 0 5.847-13.458L91.188 12.69 43.4 57.33a8 8 0 1 0 10.92 11.69L79 45.97v49.903c0 .106.013.21.016.314C78.688 126.467 54.202 151 24.136 151a8 8 0 0 0 0 16C53.98 167 79.56 148.314 90 121.953 100.437 148.313 126.017 167 155.862 167a8 8 0 0 0 0-16z"/></symbol><symbol viewBox="0 0 180 180" id="icon-maneuver-26"><path opacity=".4" d="M153 64.29a7.002 7.002 0 0 0-8.872-4.392l-21.11 7.135c-5.315-7.015-13.083-12.07-22.018-13.878V27.003a7 7 0 0 0-14 0v26.045c-14.745 2.73-26.432 14.277-29.353 28.955H34a7 7 0 0 0 0 14h23.58a36.476 36.476 0 0 0 3.727 10.55l-17.52 10.114a7 7 0 0 0 7 12.125l19.518-11.268c6.36 5.262 14.516 8.428 23.396 8.428 20.273 0 36.767-16.492 36.767-36.764 0-3.275-.437-6.45-1.244-9.474l19.388-6.553a7 7 0 0 0 4.39-8.87zM93.7 111.95c-12.55 0-22.763-10.212-22.763-22.764S81.15 66.424 93.7 66.424c12.554 0 22.767 10.212 22.767 22.764s-10.213 22.764-22.766 22.764z"/><path d="M150.315 99.885L128.5 64.863l-34.934 21.78a8 8 0 0 0 8.464 13.577l13.258-8.266c-1.262 10.85-9.84 18.998-20.588 18.998a7.995 7.995 0 0 0-7 4.13 7.967 7.967 0 0 0-1.7 4.92v34a8 8 0 0 0 16 0v-27.77c14.143-2.816 25.137-13.71 28.438-27.998l6.298 10.11a7.99 7.99 0 0 0 6.798 3.77 7.997 7.997 0 0 0 6.78-12.23z"/></symbol><symbol viewBox="0 0 180 180" id="icon-maneuver-27"><path d="M93 61.003a4 4 0 0 1-4-4v-28a4 4 0 0 1 8 0v28a4 4 0 0 1-4 4zM93 163.003a4 4 0 0 1-4-4v-27a4 4 0 0 1 8 0v27a4 4 0 0 1-4 4z" opacity=".4"/><path opacity=".4" d="M152.795 69.75a6.996 6.996 0 0 0-8.873-4.39l-21.546 7.284c-6.808-9.028-17.62-14.878-29.772-14.878-18.495 0-33.88 13.546-36.772 31.236H34a7 7 0 0 0 0 14h22.202a37.045 37.045 0 0 0 3.615 9.737l-17.912 10.34a7 7 0 0 0 7 12.125l19.918-11.5c6.458 5.366 14.748 8.598 23.78 8.598 20.55 0 37.27-16.718 37.27-37.268 0-3.36-.453-6.613-1.29-9.712l19.823-6.7a6.998 6.998 0 0 0 4.39-8.873zm-60.19 48.554c-6.943 0-13.182-3.06-17.448-7.898-.02-.023-.04-.048-.062-.072-3.58-4.093-5.758-9.443-5.758-15.297 0-12.83 10.438-23.27 23.268-23.27s23.27 10.438 23.27 23.27c0 12.83-10.44 23.267-23.27 23.267z"/><path d="M130.874 95.036c0-18.217-12.8-33.49-29.874-37.33V41.37l10.704 10.01a7.996 7.996 0 0 0 11.307-.378 7.998 7.998 0 0 0-.378-11.307L92.152 11.19 63.595 41.75a8 8 0 0 0 .384 11.306 7.97 7.97 0 0 0 5.46 2.155 7.98 7.98 0 0 0 5.846-2.537L85 42.276v18.727c0 .363.032.718.08 1.067a7.98 7.98 0 0 0-.477 2.696 8 8 0 0 0 8 8c12.28 0 22.27 9.99 22.27 22.27 0 12.007-8.64 21.508-19.91 22.22a7.996 7.996 0 0 0-1.963-.253 8 8 0 0 0-8 8v34a8 8 0 0 0 16 0v-26.427c17.238-3.43 29.874-18.69 29.874-37.54z"/></symbol><symbol viewBox="0 0 180 180" id="icon-maneuver-28"><path fill-rule="evenodd" clip-rule="evenodd" d="M107.63 157.76c-2.81 5.415-7.57 8.033-13.646 8.12-6.367.1-11.348-2.518-14.336-8.19-1.46 3.504-4.277 5.65-7.785 7.067-4.225 1.672-8.533 1.643-12.732.03-4.91-1.88-6.923-5.677-7.274-10.4-.05-.652 0-1.33 0-2.173 2.8 3.773 6.973 4.596 11.24 5.067 3.285.37 6.594.132 9.77-.783 2.773-.815 5.348-1.904 6.836-4.597 1.475 2.65 3.984 3.812 6.717 4.545 5.052 1.37 10.14 1.323 15.165-.192 2.883-.876 4.385-1.97 6.05-4.273 2.01 3.29 5.44 4.355 9.04 4.992 4.596.815 9.168.594 13.592-.984 2.174-.775 4.08-1.883 5.238-4.038 2.676 4.02 7.033 4.895 11.49 5.332 4.48.422 8.934.012 12.965-2.104 1.27-.67 2.307-1.72 3.318-2.504.74 5.454-2.273 10.433-7.307 12.18-5.503 1.895-10.747 1.41-15.634-1.678-2.217-1.425-3.105-2.47-4.746-5.398-2.848 5.445-7.73 8.09-13.95 8.112-6.238.012-11.148-2.598-14.01-8.13z" opacity=".4"/><path d="M36.776 80.89a6 6 0 0 1-4.38-10.098L52.81 48.96 30.897 28.483a6 6 0 1 1 8.193-8.767l30.687 28.672-28.618 30.6a5.98 5.98 0 0 1-4.384 1.903z"/><path d="M56.807 54.674H16.61a6 6 0 0 1 0-12h40.196a6 6 0 0 1 0 12z"/><path fill-rule="evenodd" clip-rule="evenodd" d="M164.143 96.956l-10.366-5.14-4.88-24.052a5.507 5.507 0 0 0-3.345-4.012l-8.422-3.375-2.11-19.59a5.5 5.5 0 0 0-4.3-4.785l-7.92-1.72V19.77a5.5 5.5 0 0 0-5.5-5.5H96.31a5.5 5.5 0 0 0-5.5 5.5v14.51L82.89 36a5.503 5.503 0 0 0-4.3 4.785l-2.112 19.59-8.42 3.375a5.5 5.5 0 0 0-3.345 4.012l-4.888 24.093L49.65 96.97a5.5 5.5 0 0 0-2.758 6.62L57.6 136.4a5.5 5.5 0 0 0 .836 1.605c2.725 3.613 5.974 7.164 13.015 7.456.166.007.34.01.524.01 1.098 0 3.197-.147 5.558-1.075 3.426 2.967 8.404 4.633 14.256 4.633 4.634 0 10.594-1.183 15.123-4.245 4.53 3.062 10.49 4.245 15.123 4.245 5.852 0 10.83-1.667 14.256-4.634a15.47 15.47 0 0 0 5.556 1.077c.185 0 .36-.003.532-.01 7.036-.29 10.284-3.843 13.007-7.457a5.503 5.503 0 0 0 .836-1.604l10.708-32.81a5.5 5.5 0 0 0-2.785-6.634zm-55.16-27.347a5.494 5.494 0 0 0-4.914.013L72.322 85.576l2.58-12.717 8.734-3.5a5.502 5.502 0 0 0 3.423-4.517L89.1 45.91l8.378-1.82a5.475 5.475 0 0 0 1.857-.793h14.938a5.492 5.492 0 0 0 1.857.793l8.376 1.82 2.04 18.932a5.505 5.505 0 0 0 3.423 4.517l8.735 3.5 2.59 12.77-32.313-16.02z"/></symbol><symbol viewBox="0 0 180 180" id="icon-maneuver-29"><path fill-rule="evenodd" clip-rule="evenodd" d="M107.63 157.76c-2.81 5.415-7.57 8.033-13.646 8.12-6.367.1-11.348-2.518-14.336-8.19-1.46 3.504-4.277 5.65-7.785 7.067-4.225 1.672-8.533 1.643-12.732.03-4.91-1.88-6.923-5.677-7.274-10.4-.05-.652 0-1.33 0-2.173 2.8 3.773 6.973 4.596 11.24 5.067 3.285.37 6.594.132 9.77-.783 2.773-.815 5.348-1.904 6.836-4.597 1.475 2.65 3.984 3.812 6.717 4.545 5.052 1.37 10.14 1.323 15.165-.192 2.883-.876 4.385-1.97 6.05-4.273 2.01 3.29 5.44 4.355 9.04 4.992 4.596.815 9.168.594 13.592-.984 2.174-.775 4.08-1.883 5.238-4.038 2.676 4.02 7.033 4.895 11.49 5.332 4.48.422 8.934.012 12.965-2.104 1.27-.67 2.307-1.72 3.318-2.504.74 5.454-2.273 10.433-7.307 12.18-5.503 1.895-10.747 1.41-15.634-1.678-2.217-1.425-3.105-2.47-4.746-5.398-2.848 5.445-7.73 8.09-13.95 8.112-6.238.012-11.148-2.598-14.01-8.13z" opacity=".4"/><path d="M41.13 80.89a5.986 5.986 0 0 1-4.383-1.9L8.13 48.388l30.686-28.672a6 6 0 1 1 8.193 8.767L25.094 48.96 45.51 70.792a6 6 0 0 1-4.38 10.1z"/><path d="M61.295 54.674H21.1a6 6 0 0 1 0-12h40.195a6 6 0 0 1 0 12z"/><path fill-rule="evenodd" clip-rule="evenodd" d="M164.143 96.956l-10.366-5.14-4.88-24.052a5.507 5.507 0 0 0-3.345-4.012l-8.422-3.375-2.11-19.59a5.5 5.5 0 0 0-4.3-4.785l-7.92-1.72V19.77a5.5 5.5 0 0 0-5.5-5.5H96.31a5.5 5.5 0 0 0-5.5 5.5v14.51L82.89 36a5.503 5.503 0 0 0-4.3 4.785l-2.112 19.59-8.42 3.375a5.5 5.5 0 0 0-3.345 4.012l-4.888 24.093L49.65 96.97a5.5 5.5 0 0 0-2.758 6.62L57.6 136.4a5.5 5.5 0 0 0 .836 1.605c2.725 3.613 5.974 7.164 13.015 7.456.166.007.34.01.524.01 1.098 0 3.197-.147 5.558-1.075 3.426 2.967 8.404 4.633 14.256 4.633 4.634 0 10.594-1.183 15.123-4.245 4.53 3.062 10.49 4.245 15.123 4.245 5.852 0 10.83-1.667 14.256-4.634a15.47 15.47 0 0 0 5.556 1.077c.185 0 .36-.003.532-.01 7.036-.29 10.284-3.843 13.007-7.457a5.503 5.503 0 0 0 .836-1.604l10.708-32.81a5.5 5.5 0 0 0-2.785-6.634zm-55.16-27.347a5.494 5.494 0 0 0-4.914.013L72.323 85.576l2.58-12.717 8.733-3.5a5.502 5.502 0 0 0 3.423-4.517L89.1 45.91l8.378-1.82a5.475 5.475 0 0 0 1.857-.793h14.938a5.492 5.492 0 0 0 1.857.793l8.376 1.82 2.04 18.932a5.505 5.505 0 0 0 3.423 4.517l8.735 3.5 2.59 12.77-32.313-16.02z"/></symbol><symbol viewBox="0 0 180 180" id="icon-mode-auto"><path d="M160.55 112.293c-1.486-6.344-6.3-11.72-12.778-12.77-4.52-.732-8.158-1.508-12.636-2.465-2.893-.614-5.404-1.28-7.677-3.175-5.638-4.69-11.27-10.382-16.91-15.065-4.024-3.35-8.828-6.294-14.748-6.345-11.684-.1-22.3-.428-35.17 0-9.308.31-15.807 3.933-20.324 12.232-1.77 3.253-3.424 7.577-4.976 10.94-.653 1.42-1.48 1.91-3.036 1.97-6.242.24-11.29 4.32-12.627 10.425-.91 4.144-.91 9.412.11 13.554 1.34 5.43 6.22 9.438 11.814 9.854h2.34c-.028.4-.053.804-.05 1.217.05 7.734 6.247 14.013 13.846 14.03 7.79.008 14.028-6.343 14.016-14.296 0-.322-.027-.636-.048-.952h1.434c16.723.027 33.445.02 50.166.003-.03.4-.053.803-.05 1.215.047 7.734 6.247 14.013 13.844 14.03 7.79.008 14.028-6.343 14.016-14.296 0-.322-.027-.636-.048-.952h7.237c5.763-.898 10.84-5.622 12.275-11.286.608-2.396.54-5.484-.02-7.87zm-112.773 26.46c-3.312-.01-6.016-2.745-6.036-6.118-.017-3.51 2.62-6.177 6.108-6.164 3.39.01 6.034 2.663 6.04 6.05.006 3.466-2.713 6.236-6.11 6.232zM58.37 94.93a1.78 1.78 0 0 1-1.78 1.78H44.917c-.984 0-1.706-.827-1.46-1.78.476-1.86 3.24-8.55 4.3-10.654 1.317-2.624 3.77-5.192 6.954-5.192h1.88c.984 0 1.78.798 1.78 1.78v14.067zm23.638-.22a2 2 0 0 1-2 2h-15.75a2 2 0 0 1-2-2V81.084a2 2 0 0 1 2-2h15.75a2 2 0 0 1 2 2V94.71zm10.377 14.564c-.742.018-2.363.003-3.1.003-.79 0-1.58.027-2.363-.008-1.356-.06-2.325-1.04-2.3-2.276.027-1.198.948-2.12 2.253-2.158 1.573-.044 4.03-.052 5.603-.015 1.412.037 2.333.942 2.354 2.208.02 1.31-.947 2.204-2.447 2.246zM116.91 96.71H87.402a1.78 1.78 0 0 1-1.78-1.78V80.865c0-.983.797-1.78 1.78-1.78h13.272c3.268 0 8.062 4.788 9.98 7.013 2.69 3.123 4.838 5.206 6.827 7.685.618.766 1.187 2.93-.57 2.93zm10.268 42.042c-3.327 0-6.064-2.74-6.08-6.08-.01-3.528 2.597-6.193 6.083-6.21 3.384-.013 6.036 2.616 6.076 6.025.043 3.49-2.654 6.265-6.078 6.265z"/><path opacity=".4" fill-rule="evenodd" clip-rule="evenodd" d="M89.284 109.277c-.788 0-1.578.027-2.362-.008-1.356-.06-2.325-1.04-2.3-2.276.027-1.198.948-2.12 2.253-2.158 1.573-.044 4.03-.052 5.603-.015 1.412.037 2.333.942 2.354 2.208.02 1.31-.947 2.204-2.447 2.246-.742.018-2.364.003-3.1.003zM127.18 126.463c3.384-.014 6.036 2.615 6.076 6.024.043 3.49-2.654 6.265-6.078 6.265-3.327 0-6.064-2.74-6.08-6.08-.01-3.528 2.596-6.193 6.083-6.21zM53.888 132.52c.006 3.467-2.713 6.236-6.11 6.232-3.312-.008-6.016-2.744-6.036-6.117-.018-3.51 2.62-6.177 6.107-6.164 3.387.01 6.033 2.663 6.038 6.05z"/><g opacity=".4"><path d="M62.258 94.71a2 2 0 0 0 2 2h15.75a2 2 0 0 0 2-2V81.084a2 2 0 0 0-2-2h-15.75a2 2 0 0 0-2 2V94.71zM43.455 94.93c-.245.953.477 1.78 1.46 1.78h11.676a1.78 1.78 0 0 0 1.78-1.78V80.865a1.78 1.78 0 0 0-1.78-1.78h-1.88c-3.186 0-5.637 2.567-6.954 5.19-1.06 2.106-3.824 8.795-4.3 10.657zM117.482 93.78c.615.768 1.185 2.93-.572 2.93H87.402a1.78 1.78 0 0 1-1.78-1.78V80.865c0-.983.797-1.78 1.78-1.78h13.272c3.268 0 8.062 4.788 9.98 7.013 2.693 3.123 4.84 5.206 6.828 7.684z"/></g></symbol><symbol viewBox="0 0 180 180" id="icon-mode-bicycle"><path fill-rule="evenodd" clip-rule="evenodd" d="M133.85 90.27a28.15 28.15 0 0 0-9.503 1.645c-3.09-6.378-13.3-27.454-13.527-27.975 1.582-.09 2.944-.06 4.272-.27 3.034-.475 4.896-3.564 3.843-6.448-.61-1.667-1.346-3.32-2.297-4.807-.416-.647-1.244-1.155-2.302-1.155-.887 0-1.64.81-1.95 1.497-.296.643-.052 1.65.217 2.403.43 1.204 1.708 3.73 1.708 3.73s-10.085.034-14.78 0c-1.213-.008-2.115-.652-2.64-1.794-.667-1.447-1.35-2.89-2.066-4.312-.75-1.493-2.02-1.998-3.354-1.39-1.275.582-1.777 2.02-1.132 3.45.733 1.625 1.488 3.237 2.314 4.815 1.212 2.315 3.135 3.754 5.748 4.02 1.908.19 3.846.06 5.76.205.526.042 1.25.448 1.48.894 1.423 2.8 4.348 9.562 4.348 9.562H68.275l-3.184-5.38h2.283c1.622-.008 2.63-1.03 2.63-2.494 0-1.457-1.013-2.422-2.665-2.427H56.536c-1.652.006-2.665.97-2.667 2.428 0 1.464 1.008 2.486 2.63 2.495h2.704l-.03.02 5.92 10.218-7.5 13.495a28.096 28.096 0 0 0-11.445-2.427c-15.583 0-28.215 12.63-28.215 28.212 0 15.582 12.632 28.215 28.214 28.215 14.654 0 26.696-11.175 28.078-25.468h8.17c1.223 3.637 4.654 6.26 8.703 6.26a9.188 9.188 0 0 0 9.19-9.19 9.17 9.17 0 0 0-3.51-7.214L113.94 82.17l5.892 11.833c-8.48 4.866-14.194 14-14.194 24.478 0 15.583 12.632 28.216 28.215 28.216 15.582 0 28.214-12.633 28.214-28.215 0-15.58-12.632-28.21-28.213-28.21zm-51.533 25.326h-8.1c-.866-8.538-5.54-15.95-12.298-20.513l6.213-11.095 16.558 27.73a9.198 9.198 0 0 0-2.373 3.878zm9.875-6.416a9.155 9.155 0 0 0-1.09-.07c-.723 0-1.423.09-2.097.25L71.21 79.3h38.5L92.19 109.18z"/></symbol><symbol viewBox="0 0 180 180" id="icon-mode-multimodal"><path d="M147.163 161.32c-1.307-1.036-2.705-1.986-4.062-2.973-5.376-3.913-10.89-7.7-16.112-11.8 3.016-.766 5.9-1.398 8.212-3.656 1.945-1.887 3.31-5.72 3.402-8.397.203-5.64.175-87.192 0-90.797-.227-4.89-4.677-8.44-9.48-9.443-3.124-.657-6.52-.333-9.696-.345a215.338 215.338 0 0 0-5.57.036c-1.57.032-3.162.187-4.7-.247-2.756-.776-4.43-3.164-6.333-5.123-1.85-1.908-3.962-3.596-6.548-4.307.8.032 1.217.007-.712-.18-1.757-.173-7.645-.038-10.303-.008.292-.068.198-.094-.82.006-2.957.287-5.242 2.405-7.262 4.487-1.903 1.96-3.576 4.347-6.333 5.123-1.537.434-3.13.28-4.7.247-1.853-.04-3.716-.044-5.57-.036-3.176.012-6.572-.312-9.695.345-4.804 1.003-9.254 4.554-9.48 9.443-.175 3.604-.203 85.157 0 90.797.093 2.68 1.457 6.51 3.402 8.398 2.312 2.258 5.196 2.89 8.212 3.657-5.223 4.1-10.736 7.886-16.113 11.8-1.355.985-2.754 1.936-4.06 2.97-.807.644-1.773 1.6-1.406 2.73.173.543.578.988.99 1.37.74.68 1.277.578 2.25.578H145.33c.974 0 1.51.102 2.25-.578.413-.382.818-.827.99-1.37.368-1.128-.6-2.085-1.405-2.728zm-86.398-25.78c-4.88-.117-8.53-4.018-8.464-8.988.078-4.668 4.034-8.427 8.823-8.354 4.794.076 8.68 4.023 8.597 8.76-.096 4.85-4.09 8.673-8.955 8.58zm24.875-29.927a2 2 0 0 1-2 2H50.434a2 2 0 0 1-2-2V65.07a2 2 0 0 1 2-2H83.64a2 2 0 0 1 2 2v40.543zm-4.57-61.988c.036-4.764 3.982-8.7 8.716-8.714 4.814-.005 8.68 3.94 8.67 8.847-.01 4.716-3.866 8.557-8.604 8.55-4.88 0-8.828-3.9-8.782-8.682zm12.816 61.988V65.07a2 2 0 0 1 2-2h33.195a2 2 0 0 1 2 2v40.543a2 2 0 0 1-2 2H95.887a2 2 0 0 1-2-2zm24.606 29.912c-4.775.01-8.6-3.783-8.61-8.54-.016-5.022 3.78-8.818 8.756-8.792 4.764 0 8.562 3.843 8.578 8.59.005 4.963-3.774 8.73-8.724 8.742z"/><path opacity=".4" d="M61.123 118.197c4.794.076 8.68 4.023 8.597 8.76-.096 4.852-4.09 8.674-8.955 8.582-4.88-.117-8.53-4.018-8.464-8.988.078-4.668 4.034-8.427 8.823-8.355zM118.492 135.525c-4.775.01-8.6-3.783-8.61-8.54-.016-5.022 3.78-8.818 8.756-8.792 4.764 0 8.562 3.843 8.578 8.59.005 4.963-3.774 8.73-8.724 8.742zM98.456 43.757c-.01 4.716-3.866 8.557-8.604 8.55-4.88 0-8.828-3.9-8.782-8.682.036-4.764 3.982-8.7 8.716-8.714 4.815-.005 8.68 3.94 8.67 8.847zM48.434 105.613a2 2 0 0 0 2 2H83.64a2 2 0 0 0 2-2V65.07a2 2 0 0 0-2-2H50.434a2 2 0 0 0-2 2v40.543zM93.886 105.613a2 2 0 0 0 2 2h33.195a2 2 0 0 0 2-2V65.07a2 2 0 0 0-2-2H95.887a2 2 0 0 0-2 2v40.543z"/></symbol><symbol viewBox="0 0 180 180" id="icon-mode-pedestrian"><path d="M124.684 137.263c-.834-3.486-3.768-5.365-7.61-4.825-.155-.27-.305-.537-.448-.807-1.697-3.174-3.39-6.35-5.083-9.527-4.75-8.913-9.664-18.13-14.586-27.148-1.144-2.1-1.643-4.195-1.617-6.793.045-4.916.053-9.876.05-14.797 3.463 2.63 7.854 5.88 11.8 8.802 2.146 1.59 4.175 3.092 5.876 4.36a5.884 5.884 0 0 0 3.548 1.188c1.584 0 3.125-.62 4.338-1.745 1.42-1.32 2.157-3.05 2.07-4.877-.093-1.96-1.104-3.775-2.848-5.112a6496.53 6496.53 0 0 0-14.802-11.307l-3.688-2.812c-.662-.504-2.227-1.604-3.74-2.67-1.365-.96-2.776-1.954-3.39-2.415l-.206-.154a5.99 5.99 0 0 0-3.248-2.557c-2.67-.896-5.333-.053-7.252 2.293l-5.125 6.285c-3.137 3.85-6.275 7.698-9.42 11.54-1.5 1.83-3.004 3.653-4.51 5.478-2.333 2.826-4.666 5.652-6.976 8.5l-.117.144c-1.095 1.35-2.336 2.88-2.24 5.027.142 3.074 1.73 5.253 4.474 6.132 2.605.836 5.19-.028 7.1-2.363 2.194-2.684 4.383-5.368 6.574-8.054l4.767-5.842a1687.35 1687.35 0 0 1 3.477-4.244l.808-.985c-.013 4.236-.03 8.475-.053 12.71-.01 2.19.096 4.512 1.27 6.777L68.29 117.275c-3.86 4.905-7.718 9.81-11.572 14.72-1.902 2.43-2.094 5.346-.502 7.61a53.64 53.64 0 0 0 4.108 5.15c1.098 1.22 2.736 1.918 4.494 1.918 1.1 0 2.175-.275 3.105-.796 2.536-1.414 3.792-4.298 3.054-7.01-.224-.827-.62-1.58-1-2.31l-.25-.48c.117-.156.242-.32.372-.484l4.147-5.274c5.047-6.418 10.094-12.835 15.122-19.263.366-.47.943-1.555.565-2.382l.552 1.037c.826 1.56 1.652 3.118 2.483 4.675l4.81 8.993c3.502 6.555 7.006 13.11 10.522 19.66 1.246 2.322 3.304 3.654 5.648 3.654.662 0 1.335-.108 2.002-.32a56.476 56.476 0 0 0 5.144-1.95 6.212 6.212 0 0 0 3.588-7.16zM90.66 28.973c-6.333-.03-11.153 4.812-11.127 11.187.023 6.05 4.88 10.854 10.96 10.843 6.284-.012 11.065-4.807 11.06-11.09a10.912 10.912 0 0 0-10.894-10.94z"/></symbol><symbol viewBox="0 0 180 180" id="icon-pin-a"><path fill="#FFF" d="M90 18.115c-23.59 0-42.785 20.097-42.785 44.81 0 12.17 5.543 23.5 10.43 33.492a296.92 296.92 0 0 1 2.53 5.238c7.61 16.32 24.424 56.352 24.592 56.75a5.68 5.68 0 0 0 5.126 3.48h.112a5.68 5.68 0 0 0 5.14-3.267c.195-.43 19.737-42.31 26.492-56.98 5.982-12.978 11.148-24.18 11.148-38.714 0-24.712-19.19-44.81-42.785-44.81z"/><path d="M90.005 166h-.112c-3.938-.07-7.41-2.422-8.917-5.994-2.932-6.97-17.556-41.654-24.53-56.61a302.368 302.368 0 0 0-2.492-5.16C48.864 87.827 43.1 76.045 43.1 62.923 43.1 35.947 64.138 14 90 14s46.9 21.947 46.9 48.924c0 15.437-5.34 27.02-11.526 40.434-5.522 11.995-19.587 42.166-24.648 53.028l-1.84 3.947c-1.622 3.456-5.1 5.667-8.88 5.667zM90 22.23c-21.323 0-38.67 18.256-38.67 40.693 0 11.217 5.318 22.087 10.01 31.68.89 1.81 1.76 3.596 2.563 5.308 7.04 15.098 21.717 49.91 24.59 56.736.31.733.862 1.11 1.473 1.122l.04 4.116v-4.116c.604 0 1.158-.354 1.412-.897.02-.04.708-1.513 1.847-3.962 5.062-10.854 19.115-41.007 24.635-52.99 5.78-12.54 10.77-23.366 10.77-36.994 0-22.438-17.347-40.693-38.67-40.693z"/><g><path d="M102.61 86.973l-3.59-11.78H80.98l-3.584 11.78H66.09L83.553 37.29h12.83l17.527 49.683h-11.3zm-6.093-20.58C93.2 55.726 91.33 49.69 90.917 48.29c-.42-1.398-.72-2.506-.9-3.317-.745 2.89-2.878 10.03-6.394 21.422h12.894z"/></g></symbol><symbol viewBox="0 0 180 180" id="icon-pin-b"><path fill="#FFF" d="M90 18.115c-23.59 0-42.785 20.097-42.785 44.81 0 12.17 5.543 23.5 10.43 33.492a296.92 296.92 0 0 1 2.53 5.238c7.61 16.32 24.424 56.352 24.592 56.75a5.68 5.68 0 0 0 5.126 3.48h.112a5.68 5.68 0 0 0 5.14-3.267c.195-.43 19.737-42.31 26.492-56.98 5.982-12.978 11.148-24.18 11.148-38.714 0-24.712-19.19-44.81-42.785-44.81z"/><path d="M90.005 166h-.112c-3.938-.07-7.41-2.422-8.917-5.994-2.932-6.97-17.556-41.654-24.53-56.61a302.368 302.368 0 0 0-2.492-5.16C48.864 87.827 43.1 76.045 43.1 62.923 43.1 35.947 64.138 14 90 14s46.9 21.947 46.9 48.924c0 15.437-5.34 27.02-11.526 40.434-5.522 11.995-19.587 42.166-24.648 53.028l-1.84 3.947c-1.622 3.456-5.1 5.667-8.88 5.667zM90 22.23c-21.323 0-38.67 18.256-38.67 40.693 0 11.217 5.318 22.087 10.01 31.68.89 1.81 1.76 3.596 2.563 5.308 7.04 15.098 21.717 49.91 24.59 56.736.31.733.862 1.11 1.473 1.122l.04 4.116v-4.116c.604 0 1.158-.354 1.412-.897.02-.04.708-1.513 1.847-3.962 5.062-10.854 19.115-41.007 24.635-52.99 5.78-12.54 10.77-23.366 10.77-36.994 0-22.438-17.347-40.693-38.67-40.693z"/><g><path d="M73.757 37.493h15.4c7.017 0 12.112.997 15.28 2.993 3.172 2 4.758 5.174 4.758 9.528 0 2.955-.696 5.38-2.084 7.277-1.388 1.896-3.23 3.034-5.53 3.417v.34c3.136.7 5.397 2.008 6.785 3.926 1.388 1.92 2.08 4.467 2.08 7.65 0 4.512-1.63 8.03-4.89 10.557-3.263 2.53-7.688 3.792-13.283 3.792H73.757v-49.48zM84.25 57.088h6.093c2.84 0 4.903-.44 6.174-1.32 1.275-.88 1.913-2.334 1.913-4.365 0-1.895-.69-3.256-2.08-4.078-1.388-.822-3.584-1.235-6.585-1.235H84.25v10.998zm0 8.325v12.894h6.838c2.89 0 5.02-.552 6.394-1.655 1.377-1.107 2.068-2.798 2.068-5.078 0-4.107-2.937-6.16-8.8-6.16h-6.5z"/></g></symbol></svg>