<svg width="0" height="0" style="position:absolute"><symbol viewBox="0 0 180 180" id="icon-maneuver-00"/><symbol viewBox="0 0 180 180" id="icon-maneuver-01"><path d="M139.183 59.363L88.14 11.69 40.43 62.817a8 8 0 0 0 .39 11.307 7.97 7.97 0 0 0 5.457 2.15 7.98 7.98 0 0 0 5.85-2.54l28.487-30.526V159a8 8 0 0 0 16 0V41.498l31.647 29.56a8 8 0 0 0 10.923-11.695z"/></symbol><symbol viewBox="0 0 180 180" id="icon-maneuver-02"><path d="M117.18 42.357a8 8 0 0 0-11.306.39 8 8 0 0 0 .39 11.308l28.522 26.617H25a8 8 0 0 0 0 16h111.508l-27.7 29.662a8 8 0 0 0 .386 11.307 7.97 7.97 0 0 0 5.458 2.154 7.98 7.98 0 0 0 5.85-2.54l45.81-49.05-49.13-45.847z"/></symbol><symbol viewBox="0 0 180 180" id="icon-maneuver-03"><path d="M155 80.672H45.213l28.522-26.617A8 8 0 0 0 62.82 42.357L13.69 88.204l45.81 49.05a7.973 7.973 0 0 0 5.85 2.54 8 8 0 0 0 5.845-13.46L43.49 96.674H155a8 8 0 0 0 0-16z"/></symbol><symbol viewBox="0 0 180 180" id="icon-maneuver-04"><path d="M90 14c-24.942 0-45.233 21.248-45.233 47.366 0 12.876 5.857 24.85 11.025 35.416.928 1.896 1.834 3.75 2.674 5.545 8.044 17.25 25.822 59.57 26 59.995A6.002 6.002 0 0 0 90 166a6.003 6.003 0 0 0 5.436-3.462c.208-.445 20.873-44.718 28.013-60.235 6.322-13.72 11.784-25.568 11.784-40.937C135.234 35.248 114.94 14 90 14zm0 25.216c7.72 0 14 6.282 14 14.004 0 7.718-6.28 13.997-14 13.997s-14-6.28-14-13.997c0-7.722 6.28-14.004 14-14.004z"/></symbol><symbol viewBox="0 0 180 180" id="icon-maneuver-05"><path d="M121.735 14c-24.94 0-45.232 21.25-45.232 47.366 0 12.876 5.857 24.85 11.025 35.416.928 1.897 1.834 3.75 2.674 5.545 8.044 17.25 25.822 59.57 26 59.995A6.003 6.003 0 0 0 121.62 166h.118a6.003 6.003 0 0 0 5.437-3.462c.208-.445 20.873-44.718 28.012-60.235 6.324-13.72 11.785-25.568 11.785-40.937C166.97 35.25 146.677 14 121.735 14zm0 25.216c7.72 0 14 6.282 14 14.004 0 7.718-6.28 13.997-14 13.997s-14-6.28-14-13.997c0-7.722 6.28-14.004 14-14.004z"/><path fill="#010101" d="M50.255 87.21a6 6 0 1 0-8.192 8.77l15.927 14.88H19.032a6 6 0 0 0 0 12h40.342L43.61 139.72a6 6 0 1 0 8.765 8.195l29.307-31.34L50.255 87.21z"/></symbol><symbol viewBox="0 0 180 180" id="icon-maneuver-06"><path d="M58.267 14c-24.943 0-45.235 21.25-45.235 47.366 0 15.365 5.46 27.215 11.784 40.933 7.14 15.52 27.807 59.793 28.015 60.238A6 6 0 0 0 58.268 166h.118a6 6 0 0 0 5.415-3.678c.18-.425 17.954-42.745 26-59.992.84-1.8 1.748-3.655 2.676-5.553C97.643 86.214 103.5 74.24 103.5 61.367 103.497 35.248 83.206 14 58.266 14zm0 25.216c7.72 0 14 6.282 14 14.003 0 7.717-6.28 13.996-14 13.996s-14-6.28-14-13.997c0-7.722 6.28-14.004 14-14.004z"/><path fill="#010101" d="M160.97 110.86h-38.96l15.928-14.88a6 6 0 1 0-8.192-8.77l-31.428 29.365 29.308 31.34a5.984 5.984 0 0 0 4.384 1.903 6 6 0 0 0 4.38-10.098l-15.764-16.858h40.343a6 6 0 0 0 0-12z"/></symbol><symbol viewBox="0 0 180 180" id="icon-maneuver-07"><path d="M139.183 59.363L88.14 11.69 40.43 62.817a8 8 0 0 0 .39 11.307 7.97 7.97 0 0 0 5.457 2.15 7.98 7.98 0 0 0 5.85-2.54l28.487-30.526V159a8 8 0 0 0 16 0V41.498l31.647 29.56a8 8 0 0 0 10.923-11.695z"/></symbol><symbol viewBox="0 0 180 180" id="icon-maneuver-08"><path d="M139.183 59.363L88.14 11.69 40.43 62.817a8 8 0 0 0 .39 11.307 7.97 7.97 0 0 0 5.457 2.15 7.98 7.98 0 0 0 5.85-2.54l28.487-30.526V159a8 8 0 0 0 16 0V41.498l31.647 29.56a8 8 0 0 0 10.923-11.695z"/></symbol><symbol viewBox="0 0 180 180" id="icon-maneuver-09"><path d="M95.03 12.27c-4.272-1.14-8.653 1.397-9.793 5.666a8 8 0 0 0 5.665 9.794l31.007 8.28-93.255 50.736V160a8 8 0 0 0 16 0V96.256l86.146-46.87-8.68 32.45a8 8 0 0 0 15.456 4.133l15.566-58.18L95.03 12.27z"/></symbol><symbol viewBox="0 0 180 180" id="icon-maneuver-10"><path d="M114.59 14.15a8 8 0 1 0-10.917 11.698l23.344 21.79H24.762V160a8 8 0 0 0 16 0V63.637h87.992l-22.89 24.508a8 8 0 0 0 11.693 10.922l40.99-43.888-43.958-41.03z"/></symbol><symbol viewBox="0 0 180 180" id="icon-maneuver-11"><path d="M149.762 52.81c-.45-4.395-4.39-7.592-8.772-7.143a8 8 0 0 0-7.144 8.773l3.547 34.667L42.86 12H24.826v148a8 8 0 0 0 16 0V30.986l84.918 69.265-31.793 3.24a8 8 0 1 0 1.62 15.918l60.378-6.152-6.186-60.445z"/></symbol><symbol viewBox="0 0 180 180" id="icon-maneuver-12"><path d="M152.734 62.208a7.997 7.997 0 0 0-11.307.39L119.587 86V12H24.725v148a8 8 0 0 0 16 0V28h62.862v59.76L79 64.796a7.996 7.996 0 0 0-11.307.387 8 8 0 0 0 .386 11.307l43.955 41.052 41.09-44.026a8 8 0 0 0-.39-11.308z"/></symbol><symbol viewBox="0 0 180 180" id="icon-maneuver-13"><path d="M60.413 12v74l-21.84-23.4a8 8 0 0 0-11.697 10.915l41.09 44.026 43.954-41.05a8 8 0 0 0 .386-11.307A8 8 0 0 0 101 64.796L76.412 87.76V28h62.862v132a8 8 0 0 0 16 0V12H60.413z"/></symbol><symbol viewBox="0 0 180 180" id="icon-maneuver-14"><path d="M137.14 12L42.606 89.106l3.547-34.667a8 8 0 0 0-7.144-8.774c-4.398-.445-8.323 2.75-8.772 7.144l-6.187 60.446 60.378 6.152a8 8 0 0 0 1.62-15.917l-31.792-3.24 84.918-69.264V160a8 8 0 0 0 16 0V12H137.14z"/></symbol><symbol viewBox="0 0 180 180" id="icon-maneuver-15"><path d="M52.982 47.637L76.327 25.85A8 8 0 0 0 65.41 14.15L21.453 55.178l40.99 43.888a7.977 7.977 0 0 0 5.848 2.54 8 8 0 0 0 5.845-13.46l-22.89-24.51h87.993V160a8 8 0 0 0 16 0V47.637H52.982z"/></symbol><symbol viewBox="0 0 180 180" id="icon-maneuver-16"><path d="M58.09 36.01l31.01-8.28A8 8 0 0 0 84.97 12.27L26.857 27.79 42.424 85.97a7.988 7.988 0 0 0 9.796 5.66 8 8 0 0 0 5.66-9.796L49.2 49.388l86.145 46.868V160a8 8 0 0 0 16 0V86.746L58.09 36.01z"/></symbol><symbol viewBox="0 0 180 180" id="icon-maneuver-17"><path d="M139.183 59.363L88.14 11.69 40.43 62.817a8 8 0 0 0 .39 11.307 7.97 7.97 0 0 0 5.457 2.15 7.98 7.98 0 0 0 5.85-2.54l28.487-30.526V159a8 8 0 0 0 16 0V41.498l31.647 29.56a8 8 0 0 0 10.923-11.695z"/></symbol><symbol viewBox="0 0 180 180" id="icon-maneuver-18"><path d="M29.377 13h14v141h-14z" opacity=".4"/><path d="M95.308 12.27a7.997 7.997 0 0 0-9.794 5.666 8 8 0 0 0 5.665 9.793l31.007 8.28-93.25 50.736V160a8 8 0 0 0 16 0V96.255l86.143-46.87-8.68 32.448a8 8 0 0 0 5.66 9.795 7.975 7.975 0 0 0 2.072.274 8.005 8.005 0 0 0 7.724-5.935L153.42 27.79 95.308 12.27z"/></symbol><symbol viewBox="0 0 180 180" id="icon-maneuver-19"><path d="M136.9 13h14v141h-14z" opacity=".4"/><path d="M58.09 36.01l31.01-8.28a8 8 0 0 0 5.664-9.794 7.997 7.997 0 0 0-9.794-5.665L26.858 27.79l15.565 58.18a8.003 8.003 0 0 0 7.723 5.934c.684 0 1.38-.088 2.072-.274a8 8 0 0 0 5.66-9.795L49.2 49.388l86.144 46.87V160a8 8 0 0 0 16 0V86.746L58.092 36.01z"/></symbol><symbol viewBox="0 0 180 180" id="icon-maneuver-20"><path d="M29.377 13h14v141h-14z" opacity=".4"/><path d="M95.308 12.27a7.997 7.997 0 0 0-9.794 5.666 8 8 0 0 0 5.665 9.793l31.007 8.28-93.25 50.736V160a8 8 0 0 0 16 0V96.255l86.143-46.87-8.68 32.448a8 8 0 0 0 5.66 9.795 7.975 7.975 0 0 0 2.072.274 8.005 8.005 0 0 0 7.724-5.935L153.42 27.79 95.308 12.27z"/></symbol><symbol viewBox="0 0 180 180" id="icon-maneuver-21"><path d="M136.9 13h14v141h-14z" opacity=".4"/><path d="M58.09 36.01l31.01-8.28a8 8 0 0 0 5.664-9.794 7.997 7.997 0 0 0-9.794-5.665L26.858 27.79l15.565 58.18a8.003 8.003 0 0 0 7.723 5.934c.684 0 1.38-.088 2.072-.274a8 8 0 0 0 5.66-9.795L49.2 49.388l86.144 46.87V160a8 8 0 0 0 16 0V86.746L58.092 36.01z"/></symbol><symbol viewBox="0 0 180 180" id="icon-maneuver-22"><path d="M139.183 59.363L88.14 11.69 40.43 62.817a8 8 0 0 0 .39 11.307 7.97 7.97 0 0 0 5.457 2.15 7.98 7.98 0 0 0 5.85-2.54l28.487-30.526V159a8 8 0 0 0 16 0V41.498l31.647 29.56a8 8 0 0 0 10.923-11.695z"/></symbol><symbol viewBox="0 0 180 180" id="icon-maneuver-23"><path d="M29.377 13h14v141h-14z" opacity=".4"/><path d="M95.308 12.27a7.997 7.997 0 0 0-9.794 5.666 8 8 0 0 0 5.665 9.793l31.007 8.28-93.25 50.736V160a8 8 0 0 0 16 0V96.255l86.143-46.87-8.68 32.448a8 8 0 0 0 5.66 9.795 7.975 7.975 0 0 0 2.072.274 8.005 8.005 0 0 0 7.724-5.935L153.42 27.79 95.308 12.27z"/></symbol><symbol viewBox="0 0 180 180" id="icon-maneuver-24"><path d="M136.9 13h14v141h-14z" opacity=".4"/><path d="M58.09 36.01l31.01-8.28a8 8 0 0 0 5.664-9.794 7.997 7.997 0 0 0-9.794-5.665L26.858 27.79l15.565 58.18a8.003 8.003 0 0 0 7.723 5.934c.684 0 1.38-.088 2.072-.274a8 8 0 0 0 5.66-9.795L49.2 49.388l86.144 46.87V160a8 8 0 0 0 16 0V86.746L58.092 36.01z"/></symbol><symbol viewBox="0 0 180 180" id="icon-maneuver-25"><path d="M155.863 151c-30.06 0-54.54-24.52-54.88-54.787.003-.114.017-.226.017-.34V46.656l23.163 24.82a7.978 7.978 0 0 0 5.85 2.543 8 8 0 0 0 5.847-13.458L91.188 12.69 43.4 57.33a8 8 0 1 0 10.92 11.69L79 45.97v49.903c0 .106.013.21.016.314C78.688 126.467 54.202 151 24.136 151a8 8 0 0 0 0 16C53.98 167 79.56 148.314 90 121.953 100.437 148.313 126.017 167 155.862 167a8 8 0 0 0 0-16z"/></symbol><symbol viewBox="0 0 180 180" id="icon-maneuver-26"><path opacity=".4" d="M153 64.29a7.002 7.002 0 0 0-8.872-4.392l-21.11 7.135c-5.315-7.015-13.083-12.07-22.018-13.878V27.003a7 7 0 0 0-14 0v26.045c-14.745 2.73-26.432 14.277-29.353 28.955H34a7 7 0 0 0 0 14h23.58a36.476 36.476 0 0 0 3.727 10.55l-17.52 10.114a7 7 0 0 0 7 12.125l19.518-11.268c6.36 5.262 14.516 8.428 23.396 8.428 20.273 0 36.767-16.492 36.767-36.764 0-3.275-.437-6.45-1.244-9.474l19.388-6.553a7 7 0 0 0 4.39-8.87zM93.7 111.95c-12.55 0-22.763-10.212-22.763-22.764S81.15 66.424 93.7 66.424c12.554 0 22.767 10.212 22.767 22.764s-10.213 22.764-22.766 22.764z"/><path d="M150.315 99.885L128.5 64.863l-34.934 21.78a8 8 0 0 0 8.464 13.577l13.258-8.266c-1.262 10.85-9.84 18.998-20.588 18.998a7.995 7.995 0 0 0-7 4.13 7.967 7.967 0 0 0-1.7 4.92v34a8 8 0 0 0 16 0v-27.77c14.143-2.816 25.137-13.71 28.438-27.998l6.298 10.11a7.99 7.99 0 0 0 6.798 3.77 7.997 7.997 0 0 0 6.78-12.23z"/></symbol><symbol viewBox="0 0 180 180" id="icon-maneuver-27"><path d="M93 61.003a4 4 0 0 1-4-4v-28a4 4 0 0 1 8 0v28a4 4 0 0 1-4 4zM93 163.003a4 4 0 0 1-4-4v-27a4 4 0 0 1 8 0v27a4 4 0 0 1-4 4z" opacity=".4"/><path opacity=".4" d="M152.795 69.75a6.996 6.996 0 0 0-8.873-4.39l-21.546 7.284c-6.808-9.028-17.62-14.878-29.772-14.878-18.495 0-33.88 13.546-36.772 31.236H34a7 7 0 0 0 0 14h22.202a37.045 37.045 0 0 0 3.615 9.737l-17.912 10.34a7 7 0 0 0 7 12.125l19.918-11.5c6.458 5.366 14.748 8.598 23.78 8.598 20.55 0 37.27-16.718 37.27-37.268 0-3.36-.453-6.613-1.29-9.712l19.823-6.7a6.998 6.998 0 0 0 4.39-8.873zm-60.19 48.554c-6.943 0-13.182-3.06-17.448-7.898-.02-.023-.04-.048-.062-.072-3.58-4.093-5.758-9.443-5.758-15.297 0-12.83 10.438-23.27 23.268-23.27s23.27 10.438 23.27 23.27c0 12.83-10.44 23.267-23.27 23.267z"/><path d="M130.874 95.036c0-18.217-12.8-33.49-29.874-37.33V41.37l10.704 10.01a7.996 7.996 0 0 0 11.307-.378 7.998 7.998 0 0 0-.378-11.307L92.152 11.19 63.595 41.75a8 8 0 0 0 .384 11.306 7.97 7.97 0 0 0 5.46 2.155 7.98 7.98 0 0 0 5.846-2.537L85 42.276v18.727c0 .363.032.718.08 1.067a7.98 7.98 0 0 0-.477 2.696 8 8 0 0 0 8 8c12.28 0 22.27 9.99 22.27 22.27 0 12.007-8.64 21.508-19.91 22.22a7.996 7.996 0 0 0-1.963-.253 8 8 0 0 0-8 8v34a8 8 0 0 0 16 0v-26.427c17.238-3.43 29.874-18.69 29.874-37.54z"/></symbol><symbol viewBox="0 0 180 180" id="icon-maneuver-28"><path fill-rule="evenodd" clip-rule="evenodd" d="M107.63 157.76c-2.81 5.415-7.57 8.033-13.646 8.12-6.367.1-11.348-2.518-14.336-8.19-1.46 3.504-4.277 5.65-7.785 7.067-4.225 1.672-8.533 1.643-12.732.03-4.91-1.88-6.923-5.677-7.274-10.4-.05-.652 0-1.33 0-2.173 2.8 3.773 6.973 4.596 11.24 5.067 3.285.37 6.594.132 9.77-.783 2.773-.815 5.348-1.904 6.836-4.597 1.475 2.65 3.984 3.812 6.717 4.545 5.052 1.37 10.14 1.323 15.165-.192 2.883-.876 4.385-1.97 6.05-4.273 2.01 3.29 5.44 4.355 9.04 4.992 4.596.815 9.168.594 13.592-.984 2.174-.775 4.08-1.883 5.238-4.038 2.676 4.02 7.033 4.895 11.49 5.332 4.48.422 8.934.012 12.965-2.104 1.27-.67 2.307-1.72 3.318-2.504.74 5.454-2.273 10.433-7.307 12.18-5.503 1.895-10.747 1.41-15.634-1.678-2.217-1.425-3.105-2.47-4.746-5.398-2.848 5.445-7.73 8.09-13.95 8.112-6.238.012-11.148-2.598-14.01-8.13z" opacity=".4"/><path d="M36.776 80.89a6 6 0 0 1-4.38-10.098L52.81 48.96 30.897 28.483a6 6 0 1 1 8.193-8.767l30.687 28.672-28.618 30.6a5.98 5.98 0 0 1-4.384 1.903z"/><path d="M56.807 54.674H16.61a6 6 0 0 1 0-12h40.196a6 6 0 0 1 0 12z"/><path fill-rule="evenodd" clip-rule="evenodd" d="M164.143 96.956l-10.366-5.14-4.88-24.052a5.507 5.507 0 0 0-3.345-4.012l-8.422-3.375-2.11-19.59a5.5 5.5 0 0 0-4.3-4.785l-7.92-1.72V19.77a5.5 5.5 0 0 0-5.5-5.5H96.31a5.5 5.5 0 0 0-5.5 5.5v14.51L82.89 36a5.503 5.503 0 0 0-4.3 4.785l-2.112 19.59-8.42 3.375a5.5 5.5 0 0 0-3.345 4.012l-4.888 24.093L49.65 96.97a5.5 5.5 0 0 0-2.758 6.62L57.6 136.4a5.5 5.5 0 0 0 .836 1.605c2.725 3.613 5.974 7.164 13.015 7.456.166.007.34.01.524.01 1.098 0 3.197-.147 5.558-1.075 3.426 2.967 8.404 4.633 14.256 4.633 4.634 0 10.594-1.183 15.123-4.245 4.53 3.062 10.49 4.245 15.123 4.245 5.852 0 10.83-1.667 14.256-4.634a15.47 15.47 0 0 0 5.556 1.077c.185 0 .36-.003.532-.01 7.036-.29 10.284-3.843 13.007-7.457a5.503 5.503 0 0 0 .836-1.604l10.708-32.81a5.5 5.5 0 0 0-2.785-6.634zm-55.16-27.347a5.494 5.494 0 0 0-4.914.013L72.322 85.576l2.58-12.717 8.734-3.5a5.502 5.502 0 0 0 3.423-4.517L89.1 45.91l8.378-1.82a5.475 5.475 0 0 0 1.857-.793h14.938a5.492 5.492 0 0 0 1.857.793l8.376 1.82 2.04 18.932a5.505 5.505 0 0 0 3.423 4.517l8.735 3.5 2.59 12.77-32.313-16.02z"/></symbol><symbol viewBox="0 0 180 180" id="icon-maneuver-29"><path fill-rule="evenodd" clip-rule="evenodd" d="M107.63 157.76c-2.81 5.415-7.57 8.033-13.646 8.12-6.367.1-11.348-2.518-14.336-8.19-1.46 3.504-4.277 5.65-7.785 7.067-4.225 1.672-8.533 1.643-12.732.03-4.91-1.88-6.923-5.677-7.274-10.4-.05-.652 0-1.33 0-2.173 2.8 3.773 6.973 4.596 11.24 5.067 3.285.37 6.594.132 9.77-.783 2.773-.815 5.348-1.904 6.836-4.597 1.475 2.65 3.984 3.812 6.717 4.545 5.052 1.37 10.14 1.323 15.165-.192 2.883-.876 4.385-1.97 6.05-4.273 2.01 3.29 5.44 4.355 9.04 4.992 4.596.815 9.168.594 13.592-.984 2.174-.775 4.08-1.883 5.238-4.038 2.676 4.02 7.033 4.895 11.49 5.332 4.48.422 8.934.012 12.965-2.104 1.27-.67 2.307-1.72 3.318-2.504.74 5.454-2.273 10.433-7.307 12.18-5.503 1.895-10.747 1.41-15.634-1.678-2.217-1.425-3.105-2.47-4.746-5.398-2.848 5.445-7.73 8.09-13.95 8.112-6.238.012-11.148-2.598-14.01-8.13z" opacity=".4"/><path d="M41.13 80.89a5.986 5.986 0 0 1-4.383-1.9L8.13 48.388l30.686-28.672a6 6 0 1 1 8.193 8.767L25.094 48.96 45.51 70.792a6 6 0 0 1-4.38 10.1z"/><path d="M61.295 54.674H21.1a6 6 0 0 1 0-12h40.195a6 6 0 0 1 0 12z"/><path fill-rule="evenodd" clip-rule="evenodd" d="M164.143 96.956l-10.366-5.14-4.88-24.052a5.507 5.507 0 0 0-3.345-4.012l-8.422-3.375-2.11-19.59a5.5 5.5 0 0 0-4.3-4.785l-7.92-1.72V19.77a5.5 5.5 0 0 0-5.5-5.5H96.31a5.5 5.5 0 0 0-5.5 5.5v14.51L82.89 36a5.503 5.503 0 0 0-4.3 4.785l-2.112 19.59-8.42 3.375a5.5 5.5 0 0 0-3.345 4.012l-4.888 24.093L49.65 96.97a5.5 5.5 0 0 0-2.758 6.62L57.6 136.4a5.5 5.5 0 0 0 .836 1.605c2.725 3.613 5.974 7.164 13.015 7.456.166.007.34.01.524.01 1.098 0 3.197-.147 5.558-1.075 3.426 2.967 8.404 4.633 14.256 4.633 4.634 0 10.594-1.183 15.123-4.245 4.53 3.062 10.49 4.245 15.123 4.245 5.852 0 10.83-1.667 14.256-4.634a15.47 15.47 0 0 0 5.556 1.077c.185 0 .36-.003.532-.01 7.036-.29 10.284-3.843 13.007-7.457a5.503 5.503 0 0 0 .836-1.604l10.708-32.81a5.5 5.5 0 0 0-2.785-6.634zm-55.16-27.347a5.494 5.494 0 0 0-4.914.013L72.323 85.576l2.58-12.717 8.733-3.5a5.502 5.502 0 0 0 3.423-4.517L89.1 45.91l8.378-1.82a5.475 5.475 0 0 0 1.857-.793h14.938a5.492 5.492 0 0 0 1.857.793l8.376 1.82 2.04 18.932a5.505 5.505 0 0 0 3.423 4.517l8.735 3.5 2.59 12.77-32.313-16.02z"/></symbol><symbol viewBox="0 0 180 180" id="icon-mode-bike"><path fill-rule="evenodd" clip-rule="evenodd" d="M164.498 118.216c-2.865-17.933-20.488-28.896-37.915-23.542-1.07.33-1.518.154-1.993-.854-4.043-8.598-8.145-17.168-12.228-25.75-.238-.5-.444-1.017-.722-1.654 1.644-.093 3.06-.062 4.44-.28 3.155-.493 5.09-3.706 3.996-6.703-.634-1.732-1.4-3.452-2.388-4.996-.432-.673-1.598-1.248-2.392-1.2-.73.042-1.706.84-2.028 1.555-.307.67-.053 1.716.226 2.5.446 1.25 1.116 2.42 1.714 3.673-.39.123-.525.197-.66.197-4.88.014-9.763.042-14.642.008-1.262-.01-2.2-.68-2.746-1.865a142.82 142.82 0 0 0-2.146-4.483c-.78-1.552-2.102-2.077-3.487-1.445-1.325.606-1.846 2.102-1.177 3.587.762 1.688 1.547 3.365 2.405 5.006 1.26 2.408 3.26 3.903 5.974 4.178 1.982.2 3.998.063 5.987.215.547.043 1.3.466 1.537.93 1.48 2.91 2.844 5.875 4.232 8.832.13.275.16.6.288 1.107h-1.893c-15.717 0-31.433.002-47.15-.006-.63 0-1.34.08-1.872-.18-.7-.337-1.484-.846-1.834-1.498-1-1.86.383-3.873 2.615-3.887 5.222-.028 10.446.015 15.667-.02 1.686-.01 2.735-1.072 2.735-2.593 0-1.516-1.054-2.52-2.77-2.523-5.42-.02-10.838-.072-16.255.02-4.474.078-7.976 4.356-7.352 8.78.593 4.203 3.598 6.87 7.867 6.956 1.085.02 2.173.002 3.578.002L56.576 95.68c-.254.013-.36.047-.44.018-.412-.15-.82-.313-1.228-.473-4.737-1.83-9.63-2.434-14.65-1.7-15.658 2.295-26.55 16.242-25.026 31.988 1.205 12.447 10.274 22.756 22.526 25.574 1.555.356 3.137.604 4.706.903h3.807c1.668-.314 3.346-.57 4.997-.95 11.628-2.694 20.772-12.835 22.17-24.622.118-1.006.485-1.398 1.455-1.315.337.03.687.038 1.023-.013 2.375-.357 3.782.28 5 2.746 2.7 5.448 9.79 6.916 14.876 3.533 5.104-3.395 6.277-10.49 2.455-15.284-.684-.86-.79-1.423-.207-2.396 5.278-8.827 10.495-17.692 15.73-26.543.293-.494.61-.976 1.112-1.78 1.962 4.123 3.804 7.985 5.653 11.863-1.192.866-2.307 1.574-3.305 2.418-9.487 8.017-13.234 18.202-10.117 30.212 3.076 11.853 11.124 19.007 23.174 21.522 1.087.228 2.187.405 3.28.607h3.806c1.614-.31 3.24-.57 4.84-.933 11.97-2.702 21.163-13.13 22.382-25.345.042-.427.207-.84.314-1.26v-3.81c-.135-.806-.28-1.617-.408-2.426zM58.31 103.076c4.827 2.283 10.487 11.948 9.862 16.847H48.83c3.253-5.78 6.37-11.318 9.48-16.848zm-4.712 41.852c-10.49 4.37-22.88.645-29.235-8.795-6.508-9.664-5.31-22.36 2.844-30.603 7.77-7.85 19.53-8.78 26.604-5.02-.243.46-.477.927-.73 1.383L42.604 120.49c-1.588 2.817-.548 4.603 2.727 4.606 6.975.01 13.95 0 20.927-.007h1.837c1.224 6.202-6.344 16.44-14.5 19.838zm28.37-29.23c-.817.997-1.3 2.26-2.02 3.348-.27.418-.78.902-1.223.94-1.354.12-2.727.024-4.09.038-.8.01-1.084-.365-1.185-1.136-1.06-8.142-4.92-14.688-11.41-19.674-.826-.635-.986-1.073-.443-2.004 2.04-3.49 3.986-7.037 5.973-10.56.207-.363.46-.7.81-1.23.918 1.85 1.743 3.498 2.553 5.15 3.75 7.65 7.486 15.312 11.268 22.948.427.864.408 1.394-.232 2.18zm7.855 12.32c-2.96-.056-5.37-2.507-5.35-5.44.02-3.04 2.453-5.483 5.47-5.493 2.976-.008 5.41 2.49 5.388 5.535-.02 3.044-2.48 5.453-5.507 5.398zm19.98-44.262c-5.41 9.145-10.842 18.274-16.214 27.438-.545.928-1.098 1.183-2.096.98-.8-.166-1.697-.344-2.45-.143-1.368.368-1.952-.077-2.546-1.31-4.298-8.905-8.682-17.765-13.037-26.642-.227-.47-.437-.95-.78-1.695h37.806c-.277.558-.452.98-.683 1.373zm37.72 59.755c-11.687 6.72-26.612 2.62-33.196-9.158-6.68-11.95-1.97-26.01 8.49-32.29.32.654.6 1.205.866 1.763 3.036 6.382 6.042 12.776 9.14 19.125.392.8 1.167 1.724 1.94 1.934.76.207 1.94-.192 2.588-.738.96-.805.737-2.027.225-3.11-2.656-5.59-5.32-11.176-7.978-16.767l-2.048-4.315c8.004-3.653 21.955-1.304 28.85 10.515 6.712 11.508 2.706 26.383-8.877 33.04z"/></symbol><symbol viewBox="0 0 180 180" id="icon-mode-drive"><path d="M170.784 114.643c-1.693-7.22-7.172-12.2-14.544-13.395-5.146-.833-10.284-1.716-15.38-2.805-3.292-.7-6.15-2.46-8.737-4.613-6.414-5.337-12.823-10.677-19.24-16.007-4.582-3.81-9.822-6.097-15.764-6.743-.35-.037-.685-.22-1.023-.334h-42.21c-1.384.28-2.783.51-4.152.852-7.477 1.856-13.11 6.17-16.79 12.926a190.886 190.886 0 0 0-5.663 11.312c-.744 1.616-1.685 2.173-3.456 2.243-7.104.27-12.848 4.914-14.368 11.86-1.036 4.716-1.037 9.574.125 14.288 1.525 6.177 7.078 10.74 13.446 11.215 1.603.12 2.217.586 2.37 2.268.627 6.937 6.332 12.853 13.172 13.902.46.07.9.25 1.353.376h2.855c.912-.234 1.822-.465 2.73-.703 6.486-1.688 11.31-7.408 11.805-14.116.084-1.14.432-1.533 1.603-1.532 20.77.033 41.54.03 62.308.01 1.03 0 1.478.25 1.577 1.376.672 7.643 6.03 13.395 13.51 14.62.354.06.69.226 1.037.345h2.855c.813-.205 1.623-.408 2.436-.614 6.725-1.694 11.463-7.096 12.13-13.992.138-1.43.64-1.847 2.07-2.07 7.31-1.14 12.94-6.96 14.12-14.343.055-.354.227-.688.347-1.032v-3.175c-.177-.708-.358-1.413-.523-2.12zm-56.446-27.755c.638.002 1.418.143 1.887.523 3.975 3.237 7.897 6.54 11.83 9.83.112.094.17.252.416.633H90.1V86.937c.586-.025 1.15-.072 1.712-.072 7.507-.005 15.017-.015 22.526.023zM41.262 146.66c-6.053-.035-10.972-5.02-10.908-11.058.057-5.924 5.118-10.89 11.02-10.815 6.07.075 10.975 5.06 10.917 11.087-.054 5.94-5.047 10.82-11.028 10.786zm97.51.01c-5.983-.01-10.91-4.91-10.947-10.885-.036-6.016 4.97-11.02 11.006-10.994 6.05.024 10.998 5.02 10.948 11.05-.052 5.95-5.02 10.84-11.007 10.83zm25.556-22.4c-1.948 3.584-5.116 5.485-9.116 6.133-1.193.193-1.388-.58-1.753-1.357-4.917-10.5-18.648-12.723-26.45-4.225-1.19 1.3-2.064 2.924-2.922 4.487-.436.8-.84 1.176-1.78 1.176-21.47-.026-42.942-.027-64.414-.005-1 0-1.46-.37-1.886-1.256-2.92-6.054-7.71-9.458-14.498-9.53-6.994-.072-11.92 3.364-14.928 9.6-.397.822-.82 1.178-1.77 1.187-5.784.058-10.604-4.556-10.663-10.33-.026-2.696-.208-5.42.11-8.083.61-5.104 5.07-8.89 10.32-8.972 5.246-.082 4.478.665 7.066-4.507 1.774-3.542 3.508-7.104 5.33-10.618 4.11-7.91 10.623-11.91 19.56-11.91 12.535.003 25.07-.015 37.603.01 5.124.01 9.738 1.647 13.917 4.575.283.197.524.454 1.145 1.007h-2.247c-15.6 0-31.202.03-46.803-.01-10.32-.03-15.754 5.395-18.952 13.525-1.54 3.91 1.443 7.903 5.777 7.907 19.04.015 38.077.01 57.112.01 11 0 22.004-.065 33 .05 2.012.022 4.006.82 6.022 1.174 4.417.776 8.86 1.402 13.258 2.273 4.165.823 7.03 3.344 8.92 7.664-2.614 0-4.822-.01-7.027.004-2.015.014-3.103.944-3.067 2.587.032 1.564 1.11 2.467 3.024 2.48 2.475.02 4.944.004 7.953.004-.69 1.896-1.072 3.532-1.845 4.95zM84.596 86.965v11.02h-3.958c-3.643-.005-7.287.02-10.93-.05-.478-.01-1.353-.494-1.36-.78-.098-3.36-.06-6.728-.06-10.19h16.308zm-21.45 9.867c.012.965-.505 1.15-1.293 1.147-2.432-.01-4.862-.003-7.292-.003-2.325 0-4.652.032-6.978-.01-1.554-.028-1.744-.42-1.152-1.84 1.99-4.78 5.13-8.258 10.494-9.064 1.707-.26 3.474-.192 5.21-.135.346.012.945.662.954 1.026.078 2.962.022 5.922.058 8.88z"/><path fill-rule="evenodd" clip-rule="evenodd" d="M95.464 113.903c-.896 0-1.795.03-2.688-.01-1.544-.066-2.646-1.182-2.616-2.59.03-1.362 1.078-2.413 2.563-2.455 1.79-.05 3.585-.06 5.375-.017 1.607.042 2.655 1.072 2.68 2.512.02 1.492-1.078 2.51-2.785 2.558-.845.02-1.688.003-2.53.003zM138.806 130.464c2.916-.013 5.203 2.254 5.238 5.193.037 3.008-2.29 5.4-5.24 5.4-2.87 0-5.23-2.36-5.242-5.242-.01-3.04 2.24-5.338 5.244-5.35zM46.556 135.686c.005 2.99-2.34 5.377-5.27 5.373-2.854-.007-5.186-2.367-5.203-5.274-.015-3.025 2.26-5.325 5.266-5.315 2.92.01 5.2 2.297 5.206 5.216z"/></symbol><symbol viewBox="0 0 180 180" id="icon-mode-multimodal"><path d="M85.75 151.988c-1.558-.403-2.917-.418-4.168-.9-5.054-1.967-7.596-6.277-7.593-12.586.004-30.082.008-60.167 0-90.25-.004-7.604 5.137-12.808 12.725-12.808 4.7 0 9.4-.108 14.093.05 2.64.088 4.594-.763 6.407-2.663 2.808-2.952 5.38-6.324 9.766-7.175h10.825c2.52.65 4.77 1.725 6.557 3.72 1.356 1.52 2.896 2.878 4.312 4.346 1.154 1.2 2.5 1.754 4.183 1.74 5.225-.045 10.445-.087 15.666.035 1.67.04 3.42.357 4.978.956 4.71 1.814 7.487 6.3 7.49 11.69.004 14.81.007 29.62.007 44.43 0 15.52.013 31.046-.013 46.568-.008 6.325-3.038 10.416-9.058 12.428-.194.063-.35.238-.61.422H85.75zm-7.054-38.738h1.49c28.153 0 56.305-.013 84.46.03 1.412 0 1.71-.427 1.706-1.767-.048-15-.027-30.004-.027-45.005 0-2.088-.004-2.1-2.07-2.1-27.82-.006-55.644-.006-83.46 0-2.178 0-2.197.014-2.198 2.278-.004 15.002 0 30.002.01 45.005 0 .467.052.93.09 1.56zm.094 4.667c-.08.467-.187.785-.187 1.106.004 6.978-.08 13.956.06 20.932.093 4.508 3.3 7.396 7.86 7.397 23.922.004 47.848.004 71.774 0 4.854 0 8.02-3.17 8.023-8.012.005-6.6-.035-13.197.03-19.796.014-1.33-.392-1.66-1.682-1.658-28.104.035-56.204.03-84.307.03h-1.57zm43.75-58.074v-.01c14.004 0 28.01-.025 42.015.035 1.497.01 1.836-.447 1.792-1.854-.096-3.37-.006-6.744-.03-10.113-.03-4.624-3.19-7.76-7.81-7.77-5.27-.01-10.538-.02-15.81.003-2.865.012-5.257-1.032-7.26-3.054-1.637-1.65-3.297-3.282-4.925-4.944-1.16-1.18-2.518-1.76-4.202-1.72-2.56.06-5.125.056-7.69 0-1.677-.04-3.043.52-4.204 1.704a429.14 429.14 0 0 1-5.14 5.136c-1.95 1.918-4.286 2.89-7.043 2.876-5.128-.022-10.257 0-15.383 0-5.232 0-8.194 2.93-8.24 8.183-.027 3.134-.022 6.266-.022 9.4 0 2.12.004 2.128 2.077 2.128h41.874z"/><path fill-rule="evenodd" clip-rule="evenodd" d="M86.3 98.866c-2.27.05-3.408-1.775-2.54-3.354.198-.365.504-.682.804-.98 3.91-3.928 7.825-7.847 11.75-11.76 1.28-1.277 2.726-1.4 3.728-.348 1 1.052.873 2.316-.404 3.604-3.947 3.96-7.89 7.92-11.865 11.844-.505.503-1.2.812-1.473.994zM148.844 108.93c-.682-.567-1.493-.997-1.933-1.668-.608-.936-.25-1.915.527-2.697a3677.43 3677.43 0 0 1 6.243-6.25c1.206-1.208 2.4-2.433 3.63-3.617 1.152-1.106 2.403-1.16 3.407-.204.99.937.96 2.395-.157 3.526a957.483 957.483 0 0 1-9.775 9.766c-.443.435-1.095.657-1.94 1.143zM85.644 84.62c-.69-.585-1.48-1.024-1.928-1.69-.645-.967-.19-1.924.567-2.688 2.2-2.226 4.417-4.435 6.633-6.65 1.072-1.072 2.127-2.164 3.227-3.21 1.105-1.057 2.487-1.107 3.416-.18.924.922.916 2.377-.124 3.433a916.878 916.878 0 0 1-9.867 9.856c-.445.436-1.096.656-1.926 1.13zM112.872 71.77c.053 1.52-3.863 5.363-5.372 5.27-1.62-.1-2.814-1.98-1.865-3.293a18.69 18.69 0 0 1 3.853-3.89c1.32-.99 3.325.262 3.384 1.912zM102.74 81.927c-1.263-.02-2.285-1.152-2.23-2.46.057-1.312 1.405-2.63 2.71-2.643 1.287-.01 2.345 1.074 2.314 2.37-.04 1.342-1.478 2.752-2.794 2.733zM93.45 123.056c5.308.087 9.592 4.458 9.492 9.69-.1 5.354-4.507 9.572-9.878 9.458-5.39-.117-9.447-4.415-9.36-9.914.084-5.167 4.464-9.318 9.745-9.234zm-5.076 9.593c.01 2.74 2.23 4.972 4.948 4.977 2.672.003 4.947-2.314 4.922-5.02-.026-2.733-2.276-4.99-4.967-4.98-2.693.015-4.913 2.283-4.903 5.022zM151.58 142.193c-5.284.01-9.504-4.165-9.525-9.422-.02-5.535 4.166-9.75 9.67-9.72a9.484 9.484 0 0 1 9.468 9.51c.004 5.46-4.152 9.625-9.612 9.633zm-.01-4.564c2.647.035 5.006-2.282 5.043-4.955.035-2.653-2.267-5.004-4.95-5.045-2.647-.04-5 2.267-5.04 4.946-.04 2.636 2.29 5.017 4.948 5.053zM132.03 45.21c-.004 5.218-4.275 9.47-9.505 9.464-5.406 0-9.752-4.303-9.707-9.605.048-5.256 4.404-9.6 9.635-9.607 5.316-.012 9.583 4.336 9.578 9.748zm-4.664 0c.056-2.78-2.107-5.052-4.837-5.077-2.725-.025-5.002 2.206-5.036 4.934-.036 2.672 2.135 4.91 4.814 4.966 2.818.063 5.002-2.017 5.058-4.822z"/><g fill-rule="evenodd" clip-rule="evenodd"><path d="M50.466 130.073c2.03-.42 3.51.433 3.93 2.19a2.894 2.894 0 0 1-1.667 3.327c-.904.39-1.828.747-2.766 1.047-1.442.462-2.81-.15-3.574-1.575-2.8-5.22-5.59-10.443-8.38-15.664-1.623-3.035-3.204-6.096-4.895-9.094-.656-1.167-.718-2.366-.71-3.62.01-2.603.02-5.204.028-7.807 0-.108-.038-.222-.087-.475-1.105 1.353-2.14 2.607-3.166 3.866-2.068 2.53-4.13 5.065-6.2 7.594-.918 1.126-2.103 1.52-3.33 1.13-1.284-.412-2.018-1.397-2.086-2.89-.047-1.017.59-1.76 1.174-2.482 2.078-2.558 4.19-5.09 6.276-7.64 2.656-3.243 5.302-6.496 7.95-9.742.92-1.126 2.144-1.518 3.407-1.093 1.228.41 1.98 1.497 1.983 2.967.01 5.062.032 10.123-.017 15.184-.013 1.427.25 2.683.947 3.964 3.632 6.654 7.176 13.358 10.75 20.045.14.255.282.504.433.768z"/><path d="M31.332 111.27c1.01 1.882 1.977 3.655 2.89 5.453.09.178-.082.574-.246.78-3.503 4.477-7.02 8.942-10.534 13.413-.148.188-.29.38-.397.522.28.603.627 1.135.786 1.72.352 1.28-.27 2.604-1.424 3.248-1.125.63-2.656.452-3.524-.51-.79-.873-1.53-1.8-2.206-2.765-.76-1.08-.633-2.416.26-3.55 3.06-3.904 6.134-7.803 9.2-11.703 1.71-2.173 3.42-4.35 5.196-6.608zM40.536 90.974c.71.536 1.396 1.05 2.08 1.568 3.37 2.57 6.744 5.14 10.106 7.72 1.654 1.267 1.818 3.35.388 4.68-1.024.947-2.53 1.11-3.655.268-2.934-2.19-5.83-4.43-8.732-6.66-.148-.114-.294-.34-.296-.517-.02-2.266-.014-4.53-.005-6.796 0-.062.053-.126.114-.263zM36.297 72.76c-3.57-.02-6.286 2.713-6.272 6.306.014 3.41 2.75 6.118 6.18 6.11 3.54-.006 6.235-2.708 6.232-6.25a6.152 6.152 0 0 0-6.14-6.167zm-.1 9.457c-1.724-.024-3.237-1.57-3.21-3.28.025-1.735 1.553-3.23 3.27-3.206 1.74.028 3.232 1.55 3.21 3.273-.026 1.734-1.554 3.237-3.27 3.214z"/></g><path d="M63.93 140.35l-54.815.028L9 135.712l54.912.03z"/></symbol><symbol viewBox="0 0 180 180" id="icon-mode-train"><path d="M83.597 30.653h10.358c2.41.622 4.564 1.648 6.272 3.56 1.3 1.453 2.77 2.752 4.125 4.157 1.105 1.146 2.394 1.677 4.004 1.663 4.997-.043 9.993-.083 14.988.034 1.598.038 3.27.34 4.763.915 4.505 1.734 7.163 6.025 7.165 11.184.003 14.17.006 28.34.006 42.51 0 14.852.013 29.703-.012 44.555-.008 6.054-2.907 9.968-8.666 11.893-.186.06-.335.228-.584.403.444.345.787.63 1.15.892 5.98 4.36 11.96 8.715 17.943 13.067 2.355 1.714 2.385 3.036.09 4.74H34.8c-2.293-1.686-2.273-3.018.085-4.734 5.83-4.244 11.67-8.485 17.502-12.734.414-.3.81-.63 1.33-1.04-1.49-.385-2.793-.588-3.99-1.05-4.835-1.883-7.268-6.008-7.265-12.043.006-28.782.01-57.565 0-86.35C42.46 44.998 47.38 40.02 54.64 40.02c4.496 0 8.99-.105 13.483.047 2.523.085 4.396-.73 6.13-2.55 2.687-2.825 5.15-6.05 9.344-6.864zm-36.63 83.808h1.427c26.936 0 53.87-.01 80.81.03 1.35.002 1.637-.408 1.633-1.69-.045-14.352-.026-28.706-.026-43.06 0-1.996-.002-2.01-1.98-2.01-26.616-.004-53.237-.004-79.853 0-2.082 0-2.102.015-2.103 2.18-.004 14.355 0 28.707.01 43.062 0 .444.05.888.083 1.49zm.092 4.466c-.08.447-.18.752-.18 1.06.003 6.677-.078 13.353.057 20.027.088 4.313 3.158 7.075 7.52 7.077 22.89.005 45.78.005 68.673 0 4.645 0 7.675-3.033 7.678-7.665.004-6.313-.034-12.627.03-18.94.01-1.273-.376-1.587-1.61-1.586-26.89.032-53.776.026-80.664.026H47.06zm41.856-55.563v-.01c13.4 0 26.8-.024 40.2.033 1.433.007 1.757-.428 1.715-1.775-.092-3.223-.006-6.45-.028-9.675-.03-4.425-3.052-7.426-7.473-7.434-5.042-.01-10.084-.02-15.126.003-2.743.01-5.03-.987-6.947-2.92-1.565-1.58-3.153-3.142-4.712-4.73-1.11-1.13-2.408-1.686-4.02-1.647-2.45.06-4.905.056-7.358 0-1.604-.037-2.91.5-4.023 1.632a429.826 429.826 0 0 1-4.917 4.914c-1.866 1.836-4.102 2.763-6.738 2.75-4.907-.02-9.814 0-14.72 0-5.007.002-7.84 2.804-7.885 7.83-.025 3-.02 5.996-.02 8.995 0 2.03.004 2.036 1.987 2.036h40.064zM42.752 165.286l.132.25h94.727c-2.31-1.67-4.27-3.116-6.27-4.503-.295-.206-.784-.173-1.185-.173-26.758-.01-53.517-.01-80.274 0-.438 0-.975-.005-1.306.224-1.967 1.363-3.886 2.794-5.822 4.202zm12.728-9.28l.102.257h69.235c-2.04-1.502-3.707-2.806-5.46-3.98-.636-.423-1.476-.73-2.23-.746-3.95-.076-7.903-.042-11.854-.044-13.9 0-27.8-.005-41.7.01-.754.002-1.665-.062-2.24.31-2.013 1.3-3.91 2.78-5.853 4.193z"/><path fill-rule="evenodd" clip-rule="evenodd" d="M54.242 100.7c-2.172.047-3.26-1.7-2.43-3.21.19-.35.482-.653.77-.94A5184.95 5184.95 0 0 1 63.82 85.3c1.227-1.222 2.61-1.34 3.568-.333.956 1.007.836 2.218-.388 3.45-3.776 3.788-7.548 7.575-11.353 11.332-.48.48-1.145.774-1.408.95zM114.084 110.327c-.653-.542-1.43-.952-1.85-1.594-.584-.896-.24-1.834.504-2.582 1.987-1.993 3.98-3.985 5.973-5.978 1.156-1.156 2.296-2.327 3.476-3.46 1.102-1.06 2.298-1.11 3.26-.197.948.897.92 2.29-.152 3.374a885.887 885.887 0 0 1-9.352 9.343c-.424.417-1.048.63-1.858 1.094zM53.615 87.07c-.66-.56-1.417-.98-1.846-1.62-.617-.923-.182-1.84.542-2.57 2.105-2.128 4.228-4.242 6.347-6.362 1.024-1.026 2.035-2.07 3.087-3.073 1.058-1.01 2.38-1.058 3.27-.17.882.88.876 2.274-.12 3.284a883.472 883.472 0 0 1-9.44 9.43c-.425.414-1.048.624-1.842 1.08zM79.665 74.773c.052 1.456-3.694 5.13-5.138 5.04-1.552-.095-2.693-1.894-1.784-3.148a17.864 17.864 0 0 1 3.686-3.722c1.26-.946 3.18.252 3.235 1.83zM69.972 84.492c-1.207-.02-2.186-1.103-2.133-2.354.053-1.256 1.345-2.517 2.592-2.53 1.23-.01 2.244 1.03 2.214 2.27-.038 1.283-1.416 2.634-2.674 2.614zM61.083 123.845c5.08.083 9.18 4.265 9.083 9.27-.097 5.124-4.312 9.16-9.45 9.05-5.158-.11-9.04-4.224-8.956-9.483.08-4.948 4.27-8.92 9.323-8.837zm-4.856 9.177c.01 2.623 2.133 4.757 4.734 4.763 2.56.003 4.735-2.215 4.71-4.804-.023-2.613-2.178-4.773-4.75-4.762-2.578.013-4.7 2.185-4.693 4.804zM116.703 142.154c-5.057.01-9.094-3.986-9.115-9.016-.02-5.297 3.986-9.328 9.254-9.3a9.074 9.074 0 0 1 9.057 9.097c.003 5.225-3.973 9.21-9.197 9.22zm-.01-4.367c2.53.035 4.79-2.183 4.823-4.74.034-2.54-2.17-4.787-4.734-4.826-2.534-.038-4.785 2.17-4.823 4.732-.04 2.523 2.19 4.8 4.733 4.835zM97.997 49.36c-.005 4.993-4.09 9.062-9.095 9.058-5.17 0-9.33-4.117-9.286-9.19.044-5.028 4.213-9.184 9.217-9.192 5.086-.01 9.17 4.15 9.164 9.325zm-4.463 0c.054-2.657-2.017-4.832-4.628-4.856-2.605-.023-4.785 2.11-4.817 4.72-.035 2.558 2.042 4.7 4.606 4.754 2.696.058 4.783-1.933 4.838-4.617z"/></symbol><symbol viewBox="0 0 180 180" id="icon-mode-walk"><g fill-rule="evenodd" clip-rule="evenodd"><path d="M115.024 140.89c3.354-.696 5.798.713 6.494 3.62a4.79 4.79 0 0 1-2.756 5.498 50.256 50.256 0 0 1-4.57 1.73c-2.382.762-4.643-.248-5.907-2.605-4.63-8.624-9.235-17.258-13.85-25.888-2.683-5.017-5.296-10.073-8.088-15.03-1.087-1.93-1.186-3.91-1.177-5.982.022-4.3.04-8.6.052-12.902 0-.18-.063-.365-.143-.783-1.83 2.233-3.538 4.308-5.236 6.39-3.417 4.182-6.826 8.37-10.245 12.552-1.52 1.857-3.48 2.51-5.503 1.864-2.128-.682-3.34-2.31-3.453-4.775-.076-1.682.975-2.91 1.943-4.104 3.432-4.228 6.922-8.41 10.373-12.623 4.39-5.362 8.762-10.738 13.143-16.105 1.52-1.86 3.54-2.506 5.626-1.805 2.026.68 3.27 2.474 3.276 4.902.017 8.365.053 16.73-.024 25.096-.023 2.357.41 4.435 1.564 6.55 6.004 11 11.86 22.08 17.768 33.132.22.417.46.826.71 1.267z"/><path d="M83.4 109.808c1.667 3.114 3.266 6.043 4.776 9.017.148.293-.14.947-.408 1.29-5.788 7.4-11.603 14.78-17.41 22.166-.246.312-.48.63-.662.865.47.997 1.04 1.875 1.304 2.84.577 2.12-.446 4.307-2.355 5.373-1.86 1.04-4.392.748-5.824-.842a47.71 47.71 0 0 1-3.646-4.573c-1.257-1.787-1.043-3.992.427-5.87 5.064-6.45 10.14-12.894 15.21-19.34 2.83-3.594 5.655-7.193 8.59-10.925zM98.61 76.267c1.176.884 2.31 1.733 3.44 2.593 5.568 4.248 11.143 8.492 16.702 12.755 2.735 2.096 3.004 5.54.64 7.732-1.69 1.568-4.18 1.84-6.04.448-4.85-3.62-9.636-7.32-14.432-11.008-.245-.19-.49-.564-.49-.855-.032-3.744-.02-7.486-.01-11.23 0-.103.087-.208.19-.435zM91.604 46.16c-5.9-.028-10.39 4.486-10.367 10.423.022 5.636 4.548 10.113 10.212 10.103 5.853-.01 10.308-4.477 10.302-10.33A10.168 10.168 0 0 0 91.604 46.16zm-.165 15.633c-2.85-.04-5.35-2.592-5.305-5.418.042-2.872 2.565-5.345 5.404-5.302 2.873.046 5.34 2.56 5.303 5.408-.04 2.867-2.57 5.35-5.404 5.313z"/></g></symbol></svg>